<?xml version="1.0" encoding="UTF-8" standalone="no"?>
<!-- Created with Inkscape (http://www.inkscape.org/) -->

<svg
   width="26.458334mm"
   height="18.414152mm"
   viewBox="0 0 26.458334 18.414152"
   version="1.1"
   id="svg5"
   inkscape:version="1.1 (c4e8f9e, 2021-05-24)"
   sodipodi:docname="arduino.svg"
   xmlns:inkscape="http://www.inkscape.org/namespaces/inkscape"
   xmlns:sodipodi="http://sodipodi.sourceforge.net/DTD/sodipodi-0.dtd"
   xmlns="http://www.w3.org/2000/svg"
   xmlns:svg="http://www.w3.org/2000/svg">
  <sodipodi:namedview
     id="namedview7"
     pagecolor="#ffffff"
     bordercolor="#666666"
     borderopacity="1.0"
     inkscape:pageshadow="2"
     inkscape:pageopacity="0.0"
     inkscape:pagecheckerboard="0"
     inkscape:document-units="mm"
     showgrid="false"
     inkscape:zoom="3.8897931"
     inkscape:cx="68.769725"
     inkscape:cy="34.577675"
     inkscape:window-width="1312"
     inkscape:window-height="761"
     inkscape:window-x="0"
     inkscape:window-y="25"
     inkscape:window-maximized="0"
     inkscape:current-layer="layer1" />
  <defs
     id="defs2" />
  <g
     inkscape:label="Layer 1"
     inkscape:groupmode="layer"
     id="layer1"
     transform="translate(33.950676,-101.545)">
    <path
       id="path873"
       style="fill:#ffffff;stroke:none;stroke-width:0.0235494"
       d="m -27.55129,101.56369 c -3.637921,0.0573 -6.740107,3.62489 -6.369217,7.2284 0.07171,2.46599 1.936349,4.62208 4.179001,5.49062 -0.02854,0.35183 0.09026,1.71321 -0.137318,0.70132 -0.0023,-0.71312 -0.556884,-0.70658 -1.135148,-0.66379 -0.644712,-0.13121 -1.424106,0.13019 -1.506683,0.86515 -0.370904,1.35578 -0.887923,2.69522 -1.126457,4.0727 0.229815,0.88482 1.328528,0.56178 1.997848,0.58835 0.169622,-0.37217 0.462833,-1.22751 0.75353,-0.35563 0.497866,0.60436 1.403976,0.33675 2.094876,0.39413 1.708455,-0.0374 3.293521,0.11007 4.99377,-0.10322 0.518881,-0.071 1.024736,-0.43554 1.366305,-0.72257 0.72462,1.02406 2.306484,1.14419 3.278756,0.41665 -0.143593,0.69953 0.942214,0.21957 1.379067,0.36222 1.412651,-0.0388 2.817441,0.0683 4.226913,0.002 0.06766,-0.0641 1.002281,0.0913 1.447008,0.0469 0.774736,0.30761 0.681655,-0.49025 1.182569,-0.11514 1.2437609,0.50077 2.8558241,-0.20545 3.1561158,-1.55898 0.3442418,-1.29005 0.200719,-3.09341 -1.1596508,-3.73476 -0.7583232,-0.29712 -1.726637,-0.30989 -2.402043,0.19331 -0.05309,-0.55553 -0.66795,-0.2265 0.140759,-0.60996 2.7152055,-1.45292 4.4489466,-4.87494 3.3784103,-7.87564 -0.2634919,-0.78589 -0.6833688,-1.51984 -1.2332363,-2.14081 0.6757722,0.18799 1.2167917,-0.45878 1.084786,-1.10917 0.074015,-0.67752 -0.6089414,-1.04263 -1.2015113,-0.92568 -0.5546179,-0.0585 -1.3378807,0.0669 -1.3621877,0.76051 -1.860474,-1.24542 -4.322529,-1.58056 -6.433644,-0.82578 -1.519628,0.59195 -2.769857,1.71427 -3.7686,2.98034 -1.527915,-1.93024 -3.820066,-3.41936 -6.355866,-3.35313 -0.155945,-6.1e-4 -0.31236,-0.0128 -0.468152,-0.009 z m 12.886058,3.51524 c 1.818371,-0.0864 3.897238,1.41826 3.603442,3.39511 -0.315003,1.95168 -2.595085,3.51485 -4.491605,2.64441 -1.408487,-0.49419 -2.436867,-1.69861 -3.131927,-2.9766 0.945756,-1.37789 2.169284,-3.06581 4.02009,-3.06292 z m -12.62143,0.0169 c 1.907214,-0.11478 3.405558,1.32953 4.372926,2.81519 0.159561,0.41744 -0.426398,0.8462 -0.635721,1.24469 -0.767833,1.07863 -1.822917,2.20614 -3.268007,2.12978 -1.742359,0.10949 -3.7477,-1.21194 -3.617791,-3.10658 0.08921,-1.56507 1.507489,-3.16705 3.148593,-3.08308 z m 11.345211,0.95904 c 0.264767,0.82268 -0.42713,0.68869 -1.005586,0.66814 -0.288938,0.27435 -0.04002,1.08655 -0.124243,1.56562 0.004,0.5302 -0.183052,1.25158 0.604702,0.99808 0.823553,-0.25564 0.443587,0.69225 0.525127,1.17862 0.854567,0 1.709132,1e-5 2.563698,0 0.05984,-0.52522 -0.271979,-1.44209 0.576551,-1.17862 0.799337,0.25394 0.665215,-0.42557 0.647119,-0.98907 -0.06812,-0.48879 0.130708,-1.24452 -0.09609,-1.57463 -0.517386,-0.0506 -1.397442,0.26136 -1.127578,-0.57655 0.273947,-0.83573 -0.557876,-0.5657 -1.08516,-0.6002 -0.435376,0.12153 -1.355246,-0.24143 -1.478538,0.19218 0,0.10548 0,0.21096 0,0.31643 z m -13.893896,1.27247 c 0,0.62185 0,1.24369 0,1.86553 1.874916,0 3.749832,0 5.624748,0 0,-0.79138 0,-1.58276 0,-2.37415 -1.874916,0 -3.749832,0 -5.624748,0 0,0.16955 0,0.33908 0,0.50862 z m 9.301385,4.38606 c 0.928049,1.11095 2.089365,2.05102 3.434531,2.60499 -1.173104,0.0144 -2.312287,-0.027 -3.502096,-0.0112 0.137064,0.2891 -0.843632,-0.13795 -1.284736,8.6e-4 -0.669704,-0.25889 -0.905168,0.2238 -1.001707,0.39633 -0.334833,-0.32487 -1.187304,-0.32403 -1.332013,-0.39907 1.427662,-0.56938 2.524348,-1.71473 3.421393,-2.9278 0.08821,0.11199 0.176418,0.22397 0.264628,0.33595 z m -7.251927,4.59627 c -0.142071,0.19689 -0.168275,-0.29131 0,0 z m 9.535983,0.12012 c 0.02246,0.33123 -0.0046,1.86386 -0.08862,0.905 0.06401,-0.24914 -0.111934,-0.80781 0.08862,-0.905 z m 2.511149,0.0169 c -0.07433,0.30781 0.159692,1.43894 -0.182049,1.15573 0.115167,-0.29333 -0.235951,-1.18496 0.182049,-1.15573 z m 5.7805208,0.31718 c 0.059295,0.33698 -0.059038,1.23903 -0.049748,0.38625 -8.1e-5,-0.0507 -0.01675,-0.92319 0.049748,-0.38625 z" />
    <path
       style="fill:#00989d;fill-opacity:1;stroke:none;stroke-width:0.0170135"
       d="m -21.128767,119.15534 c -0.410029,-0.13676 -0.65548,-0.33742 -0.796138,-0.65086 -0.130565,-0.29093 -0.161087,-0.74303 -0.149442,-2.21344 l 0.0098,-1.24199 0.413572,-0.01 0.413573,-0.01 0.01176,1.50672 0.01176,1.50671 0.08507,0.15074 c 0.229233,0.40618 0.94046,0.41829 1.139904,0.0194 0.06414,-0.12829 0.06903,-0.22313 0.08507,-1.65031 l 0.01702,-1.5142 0.418756,-0.01 0.418756,-0.01 -0.0118,1.52377 c -0.01146,1.47987 -0.014,1.52965 -0.08804,1.72793 -0.146655,0.39275 -0.433945,0.68543 -0.822739,0.83814 -0.267063,0.10489 -0.891528,0.1241 -1.156917,0.0356 z m 10.654007,0.009 c -0.607809,-0.16345 -0.98997,-0.64199 -1.111898,-1.3923 -0.06779,-0.41718 -0.04878,-1.18462 0.0371,-1.49719 0.173801,-0.63256 0.58939,-1.10582 1.102931,-1.25599 0.364465,-0.10658 0.9556159,-0.0406 1.3251937,0.14798 0.1841285,0.094 0.4367555,0.38191 0.5530589,0.63045 0.4166124,0.89028 0.2439435,2.5129 -0.3186572,2.9945 -0.4128994,0.35346 -1.0782123,0.50957 -1.5877324,0.37255 z m 0.8290955,-0.80641 c 0.2822319,-0.15985 0.3912969,-0.44972 0.4174706,-1.10955 0.036598,-0.92265 -0.1786759,-1.45346 -0.6160523,-1.51905 -0.5874658,-0.0881 -0.9049398,0.37158 -0.9055288,1.31113 -5.24e-4,0.78343 0.143754,1.20714 0.458604,1.34708 0.16678,0.0741 0.4884033,0.0594 0.6455065,-0.0296 z m -23.2754545,0.69863 c 0.01232,-0.0515 0.146703,-0.507 0.298638,-1.0123 0.151934,-0.5053 0.415897,-1.38575 0.586585,-1.95656 l 0.31034,-1.03782 h 0.555088 0.555089 l 0.298157,1.0038 c 0.163986,0.55208 0.360346,1.20286 0.436357,1.44614 0.156978,0.50246 0.483538,1.60474 0.483538,1.63216 0,0.01 -0.204553,0.0182 -0.454563,0.0182 h -0.454563 l -0.111881,-0.392 -0.111879,-0.39199 -0.681238,0.01 -0.681238,0.01 -0.02647,0.085 c -0.01456,0.0468 -0.06651,0.21906 -0.115458,0.38281 l -0.08899,0.29774 h -0.409953 -0.409954 z m 1.963099,-2.20325 c -0.121777,-0.4398 -0.230038,-0.79957 -0.240582,-0.79951 -0.01054,7e-5 -0.119999,0.35991 -0.243236,0.79964 l -0.224068,0.7995 h 0.46465 0.464649 z m 1.943231,0.2467 0.0087,-2.05013 0.544432,-0.0101 c 0.702145,-0.013 1.298086,0.0394 1.516473,0.13338 0.198829,0.0855 0.450986,0.34466 0.551613,0.56684 0.05537,0.12227 0.07304,0.22944 0.07415,0.44975 0.0012,0.24991 -0.01154,0.31571 -0.09419,0.48401 -0.107904,0.21974 -0.306017,0.40705 -0.51487,0.48682 l -0.140908,0.0538 0.121142,0.12735 c 0.117364,0.12337 0.885487,1.62029 0.885487,1.72563 0,0.0708 -0.112505,0.0865 -0.543033,0.0756 l -0.389911,-0.01 -0.298847,-0.68054 c -0.164366,-0.3743 -0.326861,-0.71881 -0.361102,-0.7656 -0.08,-0.10932 -0.266317,-0.20404 -0.401454,-0.20411 -0.102288,-8e-5 -0.106568,0.006 -0.127305,0.17859 -0.0118,0.0982 -0.02159,0.47339 -0.02176,0.83366 l -2.88e-4,0.65502 h -0.408597 -0.40859 z m 1.531398,-0.39251 c 0.207575,-0.0919 0.279672,-0.20774 0.279672,-0.44966 0,-0.36744 -0.164875,-0.48991 -0.662393,-0.49202 l -0.323256,-9.7e-4 -0.0094,0.52377 -0.0094,0.52377 0.284423,-0.0178 c 0.177453,-0.011 0.343081,-0.0437 0.440393,-0.0868 z m 1.846336,2.40448 c -0.0099,-0.0258 -0.01397,-0.95033 -0.0091,-2.05451 l 0.0088,-2.00759 h 0.867688 c 0.804106,0 0.885465,0.006 1.110276,0.0763 0.559716,0.17603 0.941233,0.63469 1.105945,1.32955 0.02079,0.0876 0.03757,0.34315 0.03731,0.56772 -5.37e-4,0.46677 -0.102946,0.94196 -0.26859,1.24631 -0.206028,0.37854 -0.616037,0.67505 -1.102045,0.79697 -0.308482,0.0774 -1.724005,0.11399 -1.750301,0.0453 z m 1.587102,-0.76329 c 0.207736,-0.0733 0.341098,-0.18768 0.448154,-0.38437 0.230003,-0.42259 0.252688,-1.12491 0.05352,-1.65722 -0.153222,-0.40952 -0.399744,-0.55881 -0.923647,-0.55933 l -0.331764,-3.9e-4 v 1.34894 1.34895 l 0.305209,-0.0231 c 0.167865,-0.0127 0.369699,-0.0458 0.448521,-0.0736 z m 9.046043,-1.25719 v -2.05863 h 0.488118 0.488118 l 0.258798,0.58696 c 0.142338,0.32283 0.420151,0.93857 0.617362,1.3683 l 0.358565,0.78134 0.0089,-1.35979 0.0089,-1.35981 h 0.374297 0.374297 l 0.0087,2.05013 0.0087,2.05013 h -0.502518 -0.502518 l -0.3029,-0.68905 c -0.166597,-0.37897 -0.442057,-0.99268 -0.612133,-1.36381 l -0.309231,-0.67476 -0.0089,1.36381 -0.0089,1.36381 h -0.37391 -0.373912 z m -3.402698,1.68433 v -0.34027 h 0.44235 0.442351 v -1.36107 -1.36108 h -0.443541 -0.443541 l 0.0097,-0.34878 0.0097,-0.34877 1.301532,-0.009 1.301534,-0.009 v 0.35768 0.3577 h -0.425338 -0.425338 v 1.36107 1.36108 h 0.425338 0.425338 v 0.34027 0.34027 h -1.310041 -1.310038 z m 3.232563,-4.64607 c -0.397756,-0.0722 -1.233349,-0.3113 -1.612588,-0.46143 -0.638705,-0.25284 -1.308084,-0.64092 -1.841151,-1.06742 -0.34663,-0.27734 -1.120558,-1.04636 -1.388908,-1.38009 -0.127457,-0.15851 -0.349242,-0.4643 -0.492857,-0.67951 -0.143616,-0.21522 -0.266279,-0.39884 -0.272586,-0.40805 -0.0063,-0.01 -0.0247,0.007 -0.04088,0.0358 -0.01617,0.0289 -0.162848,0.24314 -0.32594,0.4761 -0.811598,1.15922 -1.785684,2.14884 -2.589249,2.63052 -1.014797,0.6083 -2.641062,0.95186 -3.82167,0.80735 -2.170987,-0.26575 -3.865918,-1.27474 -4.892051,-2.91225 -0.25467,-0.4064 -0.531754,-1.05574 -0.655806,-1.53686 -0.09911,-0.38438 -0.100624,-0.40382 -0.100624,-1.29027 0,-0.78537 0.009,-0.9418 0.07107,-1.22806 0.323935,-1.49514 1.338493,-2.99306 2.600046,-3.83879 0.944424,-0.63312 1.882538,-0.95125 2.926321,-0.99235 1.859114,-0.0732 3.419205,0.43149 4.814766,1.55762 0.586259,0.47307 1.313455,1.25515 1.854524,1.99449 0.112289,0.15343 0.211818,0.27916 0.221176,0.27939 0.0093,2.6e-4 0.07985,-0.0949 0.156658,-0.21156 0.306207,-0.46477 0.770304,-1.02044 1.272186,-1.52321 1.097716,-1.09967 2.186996,-1.73532 3.471042,-2.02553 0.332236,-0.0751 1.733957,-0.10823 2.109674,-0.0499 1.28075,0.19892 2.631098,0.81015 3.511596,1.58951 0.9880175,0.87452 1.5964082,1.88666 1.8709181,3.11252 0.069048,0.30834 0.078817,0.44264 0.078817,1.08354 0,0.6373 -0.010206,0.77928 -0.079225,1.10173 -0.273154,1.27622 -0.9269379,2.3868 -1.9864771,3.37442 -0.83194,0.77547 -2.065512,1.37049 -3.24251,1.56404 -0.381302,0.0627 -1.266373,0.0617 -1.616282,-0.002 z m 1.67676,-2.13879 c 1.307,-0.33446 2.530933,-1.46167 2.978049,-2.74269 0.188809,-0.54095 0.246551,-1.06689 0.174226,-1.58689 -0.168238,-1.20959 -0.994168,-2.24308 -2.294025,-2.87053 -0.69402,-0.33502 -1.290263,-0.45757 -2.109673,-0.43365 -0.861443,0.0252 -1.292951,0.16257 -2.004726,0.63836 -0.932634,0.62342 -1.577068,1.31187 -2.442603,2.60943 l -0.330065,0.49481 0.116732,0.2318 c 0.441512,0.87672 1.174696,1.84308 1.825587,2.40617 0.84252,0.72888 1.633425,1.11614 2.698968,1.32154 0.353251,0.0681 0.973798,0.0376 1.38753,-0.0683 z m -1.710786,-2.80992 v -0.57764 l -0.569952,-0.01 -0.569953,-0.01 -0.0093,-0.56995 -0.0093,-0.56995 h 0.579282 0.579281 v -0.57847 -0.57845 h 0.561445 0.561445 v 0.57845 0.57847 h 0.61331 0.613308 l -0.0093,0.56995 -0.0093,0.56995 -0.603981,0.01 -0.603979,0.01 v 0.57768 0.57767 h -0.561445 -0.561445 z m -11.265517,2.82205 c 0.884946,-0.0908 1.65344,-0.42411 2.252071,-0.97672 0.312733,-0.2887 0.847066,-0.89166 1.174228,-1.32503 0.328993,-0.43581 1.067525,-1.56989 1.067717,-1.63959 1.7e-4,-0.0585 -0.471067,-0.76182 -0.812291,-1.21239 -0.351535,-0.46418 -1.200694,-1.30603 -1.603495,-1.5897 -0.569824,-0.40129 -1.120576,-0.65516 -1.724345,-0.79485 -0.155822,-0.036 -0.478464,-0.0596 -0.980801,-0.0717 -0.679646,-0.0162 -0.776093,-0.0113 -1.047159,0.0533 -0.409363,0.0977 -0.730799,0.24096 -1.116719,0.49788 -1.499844,0.99849 -2.244988,2.83582 -1.759317,4.33801 0.333905,1.03277 0.968277,1.73391 2.05064,2.26644 0.788288,0.38785 1.639559,0.54259 2.499471,0.45435 z m -2.644004,-3.9883 0.0095,-0.45086 2.084153,-0.009 2.084154,-0.009 v 0.45963 0.45963 h -2.093649 -2.093647 z m 19.4899469,-4.89139 c 0,-0.2331 -0.00187,-0.23818 -0.087434,-0.23818 -0.071211,0 -0.085417,-0.0142 -0.076561,-0.0766 0.010167,-0.0716 0.029609,-0.0773 0.3001019,-0.0866 0.389329,-0.0136 0.4343423,7.9e-4 0.4617317,0.1468 0.030003,0.15992 0.071946,0.17746 0.1008742,0.0422 0.031308,-0.14639 0.075087,-0.19595 0.1731404,-0.19595 0.079507,0 0.080903,0.006 0.080903,0.32326 0,0.30228 -0.0045,0.32326 -0.06915,0.32326 -0.039942,0 -0.080722,-0.0313 -0.096544,-0.0741 l -0.027393,-0.0741 -0.019365,0.0741 c -0.029007,0.11092 -0.1544791,0.0976 -0.1846093,-0.0195 l -0.024061,-0.0936 -0.020516,0.085 c -0.012905,0.0535 -0.048406,0.0891 -0.095681,0.0959 -0.071533,0.0104 -0.075166,-9.1e-4 -0.075166,-0.23205 0,-0.23246 -0.00331,-0.24245 -0.076561,-0.23204 -0.069565,0.01 -0.077481,0.0319 -0.086623,0.24055 -0.00956,0.21844 -0.01415,0.22968 -0.093574,0.22968 -0.080711,0 -0.083512,-0.008 -0.083512,-0.23819 z"
       id="path3347" />
  </g>
</svg>
