<?xml version="1.0" encoding="UTF-8" standalone="no"?>
<!-- Created with Inkscape (http://www.inkscape.org/) -->

<svg
   width="26.458334mm"
   height="21.677608mm"
   viewBox="0 0 26.458334 21.677608"
   version="1.1"
   id="svg5"
   inkscape:version="1.1 (c4e8f9e, 2021-05-24)"
   sodipodi:docname="blender.svg"
   xmlns:inkscape="http://www.inkscape.org/namespaces/inkscape"
   xmlns:sodipodi="http://sodipodi.sourceforge.net/DTD/sodipodi-0.dtd"
   xmlns="http://www.w3.org/2000/svg"
   xmlns:svg="http://www.w3.org/2000/svg">
  <sodipodi:namedview
     id="namedview7"
     pagecolor="#ffffff"
     bordercolor="#666666"
     borderopacity="1.0"
     inkscape:pageshadow="2"
     inkscape:pageopacity="0.0"
     inkscape:pagecheckerboard="0"
     inkscape:document-units="mm"
     showgrid="false"
     inkscape:zoom="3.1216529"
     inkscape:cx="70.315314"
     inkscape:cy="41.324262"
     inkscape:window-width="1440"
     inkscape:window-height="900"
     inkscape:window-x="0"
     inkscape:window-y="0"
     inkscape:window-maximized="0"
     inkscape:current-layer="layer1" />
  <defs
     id="defs2" />
  <g
     inkscape:label="Layer 1"
     inkscape:groupmode="layer"
     id="layer1"
     transform="translate(218.87721,13.032921)">
    <g
       id="g6183"
       transform="matrix(0.07947809,0,0,0.07947809,-201.48127,-11.997089)">
      <path
         id="path58"
         style="fill:#ffffff;stroke-width:0.283938"
         d="m -44.904297,-13.013672 c -7.912744,0.335287 -15.823519,4.2584401 -20.220703,10.9609376 -4.049626,6.3505789 -2.529785,15.6033664 3.410296,20.2621774 5.786001,5.211795 12.026172,9.884336 17.979728,14.899869 4.434445,3.623719 8.86889,7.247438 13.303335,10.871157 -39.714655,0.249367 -79.432389,0.327167 -119.142579,1 -7.60408,0.784723 -14.44325,5.382853 -18.90634,11.462824 -3.50948,4.740868 -5.13825,11.146649 -3.28671,16.864752 2.35854,7.456441 9.91927,12.686132 17.66206,12.792762 6.59565,0.364124 13.20477,0.252705 19.8067,0.385001 10.96703,0.104476 21.93462,0.112106 32.90203,0.141145 -35.75686,27.588107 -71.723,54.910717 -107.21679,82.834617 -5.56472,4.89186 -9.22083,11.89904 -10.10702,19.24932 -0.59332,5.12411 0.48614,10.49514 3.40309,14.79053 3.54056,5.42023 9.59596,9.30437 16.07501,9.78374 8.52233,0.98879 17.58063,-1.36412 24.13672,-6.95508 18.51713,-14.79766 36.8255,-29.85498 55.20117,-44.83008 1.17334,13.30075 4.76017,26.48944 11.34612,38.15626 11.180447,20.63485 29.293887,37.19702 50.317079,47.46133 23.367176,11.508 50.4055545,15.20303 76.048396,10.79407 23.05171,-3.85855 45.17224,-14.11042 62.385563,-30.01743 16.030549,-14.81299 27.630402,-34.52632 32.178222,-55.91697 1.41412,-6.83142 1.79825,-13.83464 1.60686,-20.79756 -5.9e-4,-8.29828 -0.39896,-16.70218 -2.72229,-24.71726 -2.59323,-9.46634 -6.5459,-18.55213 -11.569508,-26.979412 C 92.448495,87.45755 82.766313,76.952657 71.516223,68.576885 40.311281,44.37559 9.0908747,20.190901 -22.564178,-3.4156044 c -3.877701,-2.7971124 -7.70736,-5.7129862 -11.927954,-7.9775406 -3.282725,-1.356636 -6.886834,-1.735034 -10.412165,-1.620527 z" />
      <path
         style="fill:#eb7700;fill-opacity:1;stroke-width:0.283938"
         d="m -16.400231,253.86165 c -39.536674,-4.12854 -74.768379,-28.33107 -90.329239,-62.05195 -5.469,-11.85149 -8.28422,-24.68602 -7.77128,-35.42904 0.23221,-4.86333 0.14533,-6.2905 -0.35816,-5.88388 -0.3656,0.29525 -14.59193,11.9648 -31.61406,25.93232 -17.02213,13.96753 -32.23706,26.2625 -33.81094,27.32216 -4.76563,3.20859 -8.85428,4.4154 -15.02654,4.43524 -4.42612,0.0142 -5.90468,-0.21463 -8.23422,-1.27454 -7.33847,-3.33889 -11.19172,-10.67619 -9.89401,-18.84003 0.72682,-4.57238 3.91099,-10.57945 7.44415,-14.04366 1.65975,-1.62737 28.95555,-22.78794 60.65731,-47.02348 31.70177,-24.23555 58.013776,-44.431214 58.471121,-44.879246 0.722456,-0.707747 -3.640571,-0.814609 -33.259741,-0.814609 -37.64944,0 -37.66778,-0.0016 -42.31461,-3.563798 -9.56963,-7.336075 -4.54204,-21.243432 9.73943,-26.941287 2.36878,-0.945068 6.99468,-1.030939 69.822581,-1.296062 L -15.592702,49.225848 -36.375201,32.32808 C -47.805572,23.034305 -57.847419,14.791092 -58.690424,14.009826 -61.081217,11.794112 -62.60654,7.8236185 -62.174291,4.9411492 -60.686155,-4.9824229 -45.872999,-10.986794 -35.115507,-6.0268675 -33.339838,-5.2081649 -15.765888,7.9081311 6.5700493,25.085093 27.808674,41.41819 51.041345,59.281343 58.198218,64.780988 74.32743,77.175344 79.451827,81.635441 85.069698,88.169038 96.346873,101.2844 103.80402,116.25665 107.48726,133.1784 c 1.0854,4.98656 1.25804,7.51103 1.26854,18.54936 0.0106,11.15096 -0.1493,13.51191 -1.25637,18.54936 -8.042197,36.59369 -34.496584,65.20923 -72.047835,77.93371 -15.741885,5.33424 -34.89479937,7.42154 -51.851826,5.65082 z m 26.661485,-49.12204 c 24.896085,-4.17308 45.939281,-21.7386 52.962513,-44.20975 6.670172,-21.34153 0.361183,-44.11858 -16.654058,-60.1253 -9.5695,-9.002298 -20.719946,-14.715676 -34.63468,-17.746462 -6.7758307,-1.475851 -22.707848,-1.472631 -29.499776,0.006 -26.372114,5.741175 -46.401368,24.041862 -52.358171,47.839542 -1.796584,7.17743 -1.796584,19.37032 0,26.54774 5.224463,20.87195 21.855025,38.04495 43.760935,45.18829 6.671625,2.17556 10.700988,2.95591 17.3993386,3.36966 7.4593053,0.46076 12.44691,0.23275 19.0238984,-0.86968 z"
         id="path2999" />
      <path
         id="path5967"
         style="fill:#ffffff;fill-opacity:1;stroke:#ffffff;stroke-width:0.283938"
         d="m -5.4879017,81.653544 c -3.5751982,0.0335 -7.1611253,0.0584 -10.7155803,0.485039 -2.601888,0.30756 -5.158462,0.9286 -7.644304,1.748618 -2.136987,0.705649 -4.25047,1.482286 -6.342893,2.310551 -10.416993,4.190719 -19.821295,10.894356 -27.138543,19.415088 -5.199184,6.06608 -9.344226,13.08221 -11.839395,20.68678 -0.568687,1.76351 -1.092702,3.54678 -1.443693,5.36778 -0.486815,2.61289 -0.505243,5.28134 -0.548773,7.93019 -0.02475,3.40958 -0.03972,6.82006 0.0388,10.22907 0.07306,2.64382 0.193868,5.3207 0.930597,7.87734 2.466761,8.63442 6.713022,16.76351 12.44264,23.68189 5.374248,6.51113 12.047355,11.93479 19.489504,15.91595 4.656511,2.47782 9.566587,4.47537 14.617671,5.99186 4.26066,1.26751 8.632732,2.20382 13.064993,2.59414 3.2259266,0.25539 6.4671386,0.2549 9.70016693,0.16207 3.19946867,-0.10499 6.40203557,-0.29614 9.57196867,-0.75712 10.7376754,-1.59093 21.1075374,-5.6622 30.0226194,-11.86131 8.143764,-5.6587 15.119795,-13.07568 19.952727,-21.75658 3.675406,-6.58366 6.083538,-13.87906 6.979814,-21.36874 0.95877,-7.91221 0.227303,-16.02023 -2.109259,-23.63899 C 61.085667,118.60676 56.845111,111.11488 51.302196,104.77664 47.29397,100.17509 42.609385,96.178674 37.504347,92.841754 34.587946,90.905221 31.611579,89.025848 28.398016,87.616334 25.6426,86.397451 22.786569,85.427372 19.938964,84.450192 16.984905,83.450041 13.970671,82.57432 10.869947,82.174886 7.4074777,81.717573 3.9080641,81.686516 0.42109133,81.653276 c -1.96964563,-0.01129 -3.93934413,-0.0076 -5.90899503,2.68e-4 z m 2.0453535,20.163626 c 0.8152156,-0.003 1.6260391,0.0102 2.4254512,0.0417 3.2277261,0.14386 6.4668452,0.40768 9.6261395,1.16222 2.3709705,0.5585 4.6618105,1.4137 6.8811035,2.4103 0.317966,0.14232 0.649962,0.29527 0.978133,0.44871 1.397793,0.64735 2.794113,1.37137 4.104761,2.1439 1.322041,0.77859 2.604725,1.624 3.83956,2.53473 0.351218,0.26205 0.756771,0.56795 1.101709,0.84262 3.898466,3.0762 7.260825,6.84741 9.780312,11.13184 0.539959,0.91946 1.060521,1.89468 1.524013,2.87143 1.071774,2.24878 1.926587,4.64579 2.505535,7.08672 0.201216,0.846 0.366356,1.67474 0.504931,2.53966 0.159605,0.99584 0.276556,2.00398 0.347745,3.02958 0.07721,1.07678 0.09932,2.22889 0.06993,3.30712 -0.04406,1.55243 -0.194154,3.10716 -0.451278,4.65342 -0.791049,4.70802 -2.515857,9.2981 -5.011508,13.38715 -3.365418,5.54476 -8.127494,10.19877 -13.637127,13.60201 -3.401148,2.10598 -7.085653,3.74807 -10.913242,4.90712 -0.202933,0.0588 -0.4825158,0.12842 -0.7167196,0.18619 -0.7360709,0.17349 -1.5178035,0.31608 -2.2402059,0.43083 -2.1156903,0.33086 -4.2941769,0.53949 -6.45125863,0.68247 -1.21392948,0.0797 -2.48613347,0.13953 -3.70147577,0.16964 -1.3495047,0.0355 -2.7000438,0.0394 -4.0494982,-4.8e-4 -0.2432235,-0.009 -0.5523071,-0.0183 -0.7940913,-0.0316 -1.3954019,-0.0611 -2.7906296,-0.19825 -4.1550536,-0.50582 -3.760028,-0.77894 -7.406198,-2.0801 -10.838005,-3.79871 -0.340172,-0.17081 -0.733116,-0.37493 -1.090113,-0.56512 -0.217268,-0.11723 -0.48737,-0.26217 -0.70449,-0.38551 -5.143862,-2.8728 -9.781463,-6.70928 -13.385882,-11.3831 -0.576741,-0.74735 -1.146254,-1.55557 -1.647946,-2.32222 -0.525955,-0.81027 -1.020183,-1.64115 -1.477947,-2.49184 -0.0986,-0.19256 -0.239861,-0.45132 -0.348716,-0.67247 -0.539347,-1.07391 -1.033023,-2.13833 -1.500563,-3.2487 -0.261527,-0.61995 -0.492855,-1.2153 -0.724008,-1.85314 -0.899427,-2.46464 -1.465588,-5.04829 -1.684851,-7.6626 -0.02455,-0.29959 -0.0534,-0.66681 -0.07267,-0.9925 -0.0813,-1.39919 -0.09999,-2.83524 -0.056,-4.21545 0.0862,-2.54568 0.418142,-5.08529 1.030428,-7.55871 0.09497,-0.3827 0.212796,-0.82138 0.32762,-1.22282 0.207872,-0.72414 0.442518,-1.44208 0.692317,-2.1341 1.598623,-4.44056 4.184777,-8.49063 7.368084,-11.96155 0.884505,-0.97028 1.81787,-1.89501 2.777705,-2.7905 0.333642,-0.30845 0.711065,-0.65252 1.069935,-0.96558 0.687141,-0.60417 1.394799,-1.19032 2.101609,-1.74435 1.248254,-0.97707 2.577706,-1.91168 3.903475,-2.73729 4.018251,-2.51371 8.475265,-4.32091 13.110294,-5.31208 0.902142,-0.19383 1.832409,-0.36428 2.722957,-0.49526 1.5506726,-0.23403 3.1640462,-0.38898 4.7509429,-0.46185 0.7107899,-0.0349 1.3896419,-0.05 2.1079619,-0.056 z" />
      <path
         style="fill:#215688;fill-opacity:1;stroke-width:0.283938"
         d="m -11.905751,179.31331 c -13.185093,-2.76624 -24.784289,-11.29932 -30.08661,-22.13356 -2.95724,-6.04253 -3.966268,-10.24668 -3.966268,-16.52561 0,-6.3261 1.006753,-10.47246 4.067551,-16.75239 4.257058,-8.73432 13.745511,-16.75865 23.758453,-20.09237 7.665606,-2.55221 15.9505702,-3.28085 23.0367153,-2.02604 23.5851847,4.17644 39.0185317,23.91469 35.2723787,45.11106 -2.638314,14.92805 -14.727986,27.41929 -30.7670297,31.78898 -4.693211,1.27862 -16.5526961,1.62911 -21.3151903,0.62993 z"
         id="path306" />
    </g>
  </g>
</svg>
