<?xml version="1.0" encoding="UTF-8" standalone="no"?>
<!-- Created with Inkscape (http://www.inkscape.org/) -->

<svg
   width="12.727282mm"
   height="26.458334mm"
   viewBox="0 0 12.727281 26.458334"
   version="1.1"
   id="svg5"
   inkscape:version="1.1 (c4e8f9e, 2021-05-24)"
   sodipodi:docname="mongo.svg"
   xmlns:inkscape="http://www.inkscape.org/namespaces/inkscape"
   xmlns:sodipodi="http://sodipodi.sourceforge.net/DTD/sodipodi-0.dtd"
   xmlns="http://www.w3.org/2000/svg"
   xmlns:svg="http://www.w3.org/2000/svg">
  <sodipodi:namedview
     id="namedview7"
     pagecolor="#ffffff"
     bordercolor="#666666"
     borderopacity="1.0"
     inkscape:pageshadow="2"
     inkscape:pageopacity="0.0"
     inkscape:pagecheckerboard="0"
     inkscape:document-units="mm"
     showgrid="false"
     inkscape:zoom="2.4482742"
     inkscape:cx="5.1056373"
     inkscape:cy="57.795814"
     inkscape:window-width="1312"
     inkscape:window-height="761"
     inkscape:window-x="0"
     inkscape:window-y="25"
     inkscape:window-maximized="0"
     inkscape:current-layer="layer1" />
  <defs
     id="defs2" />
  <g
     inkscape:label="Layer 1"
     inkscape:groupmode="layer"
     id="layer1"
     transform="translate(454.02788,312.93164)">
    <g
       id="g6804"
       transform="matrix(0.48103156,0,0,0.48103156,-235.62614,-162.40165)">
      <path
         id="path6604"
         style="fill:#ffffff;fill-opacity:1;stroke:none;stroke-width:0.0594671"
         d="m -440.87908,-312.93164 c -0.67075,0.13081 -0.97569,0.88613 -1.41301,1.34484 -1.43878,1.88804 -2.9127,3.74957 -4.3991,5.59993 -3.55252,4.69777 -6.29258,10.14855 -7.20916,16.00751 -0.19199,1.96914 -0.1169,3.95544 -0.0925,5.93074 0.13964,2.09585 0.72889,4.13994 1.409,6.11799 1.72545,4.55003 4.5423,8.67681 8.08108,12.00955 0.5132,0.48304 1.05818,0.93381 1.59094,1.3818 0.17309,1.93519 0.20271,3.90415 0.66457,5.79767 0.27323,0.82314 1.28428,0.78377 1.9927,0.80955 0.57842,0.053 1.01708,-0.46544 0.96894,-1.02393 0.22277,-1.7922 0.38324,-3.59191 0.46668,-5.39547 2.76098,-2.78868 5.73803,-5.493 7.58668,-9.01267 1.69433,-3.00947 3.05206,-6.26957 3.43212,-9.7287 0.43212,-3.25184 0.26268,-6.59885 -0.55762,-9.77776 -1.46725,-5.35457 -4.21403,-10.32065 -7.77565,-14.56441 -1.37002,-1.68036 -2.65374,-3.43043 -4.00604,-5.12301 -0.18789,-0.20554 -0.45641,-0.37282 -0.73966,-0.37363 z m 0.14447,34.84234 c 0.18596,3.71611 0.30668,7.43778 0.56055,11.1489 -0.28482,0.18117 -0.60187,0.80681 -0.9015,0.31784 -0.47301,-0.23283 -0.32647,-0.71622 -0.31314,-1.14513 0.18636,-4.13111 0.36851,-8.26242 0.55874,-12.39335 0.0318,0.69058 0.0635,1.38115 0.0954,2.07174 z" />
      <path
         style="fill:#00ed64;fill-opacity:1;stroke:none;stroke-width:0.0594671"
         d="m -441.62362,-258.94287 c -0.0788,-0.24838 -0.40971,-3.50351 -0.5069,-4.98689 l -0.0644,-0.98349 -0.90672,-0.75735 c -2.79169,-2.33183 -5.64266,-5.91205 -7.3666,-9.25094 -1.4783,-2.86316 -2.09653,-4.77164 -2.74978,-8.48862 -0.16352,-0.9304 -0.16406,-5.08378 -7.4e-4,-6.10425 0.21373,-1.33594 0.48896,-2.79152 0.59856,-3.16548 0.99483,-3.39442 1.74876,-5.247 3.18054,-7.8153 0.96865,-1.73753 3.16955,-4.96915 4.0717,-5.97852 0.66228,-0.741 1.8118,-2.19997 3.11087,-3.94834 0.73761,-0.99272 1.37264,-1.8089 1.41119,-1.81375 0.0385,-0.005 0.3822,0.42469 0.76368,0.95451 0.38147,0.52983 0.75507,1.0249 0.83019,1.10015 0.0751,0.0753 0.37613,0.46231 0.66889,0.86012 0.51218,0.69598 1.34453,1.75326 1.59199,2.0222 0.0654,0.0711 0.30626,0.36288 0.53521,0.64844 0.22895,0.28554 0.55287,0.68237 0.71983,0.88184 0.48881,0.58399 2.03493,2.80116 2.54912,3.65549 0.69795,1.15969 1.05653,1.81072 1.73559,3.15105 0.4368,0.86217 0.86228,1.74525 0.94551,1.96242 0.0832,0.21717 0.22548,0.58218 0.31611,0.81112 0.15312,0.38681 0.7284,2.09521 0.98122,2.9139 0.12356,0.4001 0.39375,1.5702 0.59047,2.55709 0.21649,1.08608 0.37839,4.01649 0.30226,5.47098 -0.12594,2.40608 -0.71944,5.30067 -1.47535,7.19554 -0.0522,0.13082 -0.18761,0.47871 -0.30094,0.77307 -0.52796,1.37139 -2.64677,5.27589 -3.03341,5.58992 -0.0402,0.0327 -0.28427,0.35714 -0.54221,0.72097 -0.25794,0.36383 -0.6563,0.89895 -0.88525,1.18914 -0.46097,0.5843 -3.85783,4.01695 -4.52969,4.57742 l -0.42645,0.35576 -0.0782,1.36546 c -0.043,0.75101 -0.13232,1.8204 -0.19847,2.37641 -0.0661,0.55602 -0.15064,1.31869 -0.18776,1.69482 l -0.0675,0.68387 h -0.7565 c -0.63001,0 -0.76811,-0.0365 -0.82593,-0.21876 z m 1.63206,-7.15371 0.59321,-0.59321 -0.0791,-0.69953 c -0.0704,-0.62161 -0.15049,-2.29406 -0.54238,-11.31578 -0.29547,-6.802 -0.37331,-8.41191 -0.48098,-9.94865 -0.0649,-0.92549 -0.1179,-2.32725 -0.1179,-3.11501 0,-1.28856 -0.0939,-1.74888 -0.31222,-1.53056 -0.0322,0.0322 -0.13676,1.89739 -0.23237,4.14488 -0.0956,2.2475 -0.22637,5.15677 -0.29057,6.46504 -0.18187,3.70601 -0.46784,10.06081 -0.59397,13.19886 l -0.11461,2.85156 0.55927,0.56781 c 0.30759,0.31229 0.66258,0.5678 0.78886,0.5678 0.12627,0 0.49654,-0.26695 0.8228,-0.59321 z"
         id="path5118" />
    </g>
  </g>
</svg>
