<?xml version="1.0" encoding="UTF-8" standalone="no"?>
<!-- Created with Inkscape (http://www.inkscape.org/) -->

<svg
   width="26.458332mm"
   height="18.279516mm"
   viewBox="0 0 26.458332 18.279516"
   version="1.1"
   id="svg5"
   inkscape:version="1.1 (c4e8f9e, 2021-05-24)"
   sodipodi:docname="mysql.svg"
   xmlns:inkscape="http://www.inkscape.org/namespaces/inkscape"
   xmlns:sodipodi="http://sodipodi.sourceforge.net/DTD/sodipodi-0.dtd"
   xmlns="http://www.w3.org/2000/svg"
   xmlns:svg="http://www.w3.org/2000/svg">
  <sodipodi:namedview
     id="namedview7"
     pagecolor="#ffffff"
     bordercolor="#666666"
     borderopacity="1.0"
     inkscape:pageshadow="2"
     inkscape:pageopacity="0.0"
     inkscape:pagecheckerboard="0"
     inkscape:document-units="mm"
     showgrid="false"
     inkscape:zoom="4.5338792"
     inkscape:cx="50.618905"
     inkscape:cy="24.151504"
     inkscape:window-width="1312"
     inkscape:window-height="761"
     inkscape:window-x="0"
     inkscape:window-y="25"
     inkscape:window-maximized="0"
     inkscape:current-layer="layer1" />
  <defs
     id="defs2" />
  <g
     inkscape:label="Layer 1"
     inkscape:groupmode="layer"
     id="layer1"
     transform="translate(348.21594,107.63499)">
    <g
       id="g9447"
       transform="matrix(1.1311833,0,0,1.1311833,45.680131,14.119917)">
      <path
         id="path9402"
         style="fill:#ffffff;fill-opacity:1;stroke:none;stroke-width:0.0177461"
         d="m -333.99799,-107.63499 c -0.64206,0.0175 -1.1584,0.71891 -0.95549,1.33635 0.15735,0.56232 0.69644,0.91909 0.83788,1.48686 0.15357,0.46299 0.3369,0.93167 0.60492,1.33416 -0.1348,0.45554 -0.22101,0.92821 -0.17409,1.4047 0.004,0.66505 0.23529,1.37125 0.77332,1.79246 0.34271,0.27553 0.87754,0.23423 1.1738,-0.0909 0.33268,0.32587 0.6572,0.673816 1.04825,0.929279 0.22505,0.127596 0.45011,0.255194 0.67514,0.382792 0.0259,-0.330359 0.0961,-0.669619 0.095,-0.994571 -0.17402,-0.34196 -0.49239,-0.58037 -0.68041,-0.91534 -0.34464,-0.50188 -0.59904,-1.05597 -0.83775,-1.61341 -0.0429,-0.18458 -0.26241,-0.18919 -0.39846,-0.27903 -0.1874,0.0282 -0.37473,0.0745 -0.50075,0.22737 0.0591,-0.44407 0.37206,-0.90289 0.14094,-1.34666 -0.11681,-0.19915 -0.30128,-0.35356 -0.38176,-0.57622 0.13401,0.0425 0.27133,0.26353 0.40306,0.13321 0.22781,-0.11746 0.42691,-0.29508 0.49686,-0.55049 0.0651,-0.10126 0.021,-0.31315 0.0701,-0.35765 0.93194,0.52402 1.66176,1.37994 2.0679,2.36623 0.28773,0.58982 0.49861,1.22255 0.86368,1.77129 0.27247,0.41483 0.79168,0.48437 1.21235,0.67076 -0.31777,0.0853 -0.62818,0.35925 -0.58241,0.71489 0.13502,0.656323 0.72417,1.083398 1.28329,1.379456 0.38719,0.184523 0.7448,0.421071 1.0778,0.689464 0.12055,0.109361 0.26374,0.114054 0.4154,0.08084 0.21053,0.02389 0.29038,-0.211799 0.43159,-0.325792 0.016,-0.235268 -0.0206,-0.471459 -0.17106,-0.66094 -0.21701,-0.299866 -0.48659,-0.559832 -0.7648,-0.802537 0.29083,-0.0638 0.59272,-0.253383 0.62659,-0.573961 0.0336,-0.31906 -0.24212,-0.5641 -0.45083,-0.77281 -0.54409,-0.54453 -1.2033,-0.96076 -1.91262,-1.25513 -0.36428,-0.69858 -0.64841,-1.43539 -1.00666,-2.13631 -0.63637,-1.09735 -1.60869,-1.98679 -2.73418,-2.5647 -0.3707,-0.18284 -0.78327,-0.23972 -1.18959,-0.28163 -0.45188,-0.32735 -0.98705,-0.60228 -1.55702,-0.60203 z m 1.58906,8.565882 c -0.69252,9.36e-4 -1.38385,0.299551 -1.81591,0.849042 -0.48374,0.569691 -0.67186,1.327132 -0.70178,2.059824 -0.4835,-0.376981 -1.06858,-0.604036 -1.54834,-0.982641 -0.10211,-0.06191 -0.0755,-0.220679 0.0494,-0.226081 0.49805,-0.07527 0.9647,0.148894 1.42917,0.289398 0.23744,-0.428315 0.43477,-0.875916 0.61288,-1.331701 -0.50646,-0.273404 -1.01735,-0.584165 -1.60612,-0.627869 -0.74951,-0.09583 -1.59973,0.09147 -2.07532,0.722437 -0.15856,0.198858 -0.27492,0.459017 -0.3452,0.683678 -0.44378,-0.07973 -0.89789,-0.0098 -1.34564,-0.01344 -0.12258,0.548201 -0.20979,1.103212 -0.31576,1.654681 -0.15861,-0.498483 -0.30091,-1.002999 -0.49093,-1.490867 -0.35732,-0.235354 -0.80095,-0.196 -1.2087,-0.185518 -0.15591,0.03263 -0.28622,0.09123 -0.25098,-0.130955 -0.0586,-0.3434 -0.01,-0.750059 -0.26038,-1.022972 -0.31625,-0.248785 -0.74091,-0.143137 -1.11273,-0.167439 -0.21897,0 -0.43794,0 -0.6569,0 -0.28586,0.86492 -0.56682,1.731463 -0.85474,2.595708 -0.28654,-0.863362 -0.5669,-1.728737 -0.84233,-2.595708 -0.63889,0 -1.27778,0 -1.91667,0 -0.23622,1.403557 -0.31091,2.827743 -0.40039,4.246383 -0.0309,0.623403 -0.0267,1.250389 -0.14965,1.865114 0.008,0.131111 0.29573,0.02184 0.41476,0.05763 0.51139,3e-6 1.02278,0 1.53416,0 6.4e-4,-0.56107 -0.006,-1.122331 0.017,-1.683099 0.17968,0.565684 0.35912,1.13144 0.53901,1.697053 0.4813,-0.01349 0.96258,-0.02776 1.44383,-0.04341 0.19346,-0.606153 0.38793,-1.211977 0.58187,-1.817979 0.0339,0.615458 0.0539,1.231561 0.0786,1.847432 0.3929,0 0.78581,3e-6 1.17874,0 0,0.367422 0,0.734841 0,1.102259 0.45617,0.16096 0.97629,0.328872 1.475,0.192903 0.76888,-0.175059 1.30236,-0.83833 1.67675,-1.491155 0.53945,-0.977431 0.85328,-2.061522 1.09553,-3.145919 0.34652,0.507301 0.93297,0.756851 1.4428,1.0635 0.10853,0.06762 0.30385,0.177575 0.43667,0.274918 0.13226,0.08644 0.12583,0.2936 -0.0393,0.337447 -0.51085,0.168143 -1.02272,-0.11603 -1.48312,-0.311475 -0.1773,-0.148942 -0.25556,-0.0269 -0.31329,0.151434 -0.18275,0.371057 -0.36584,0.741937 -0.54867,1.112954 0.62529,0.375317 1.28797,0.788609 2.04483,0.775147 0.57828,0.02025 1.18825,-0.07967 1.64796,-0.456303 0.20146,-0.156766 0.37354,-0.351655 0.50075,-0.57309 0.3814,0.667205 1.1497,1.047411 1.90757,1.034055 0.25008,0.0058 0.50287,0.01008 0.75014,-0.03257 0.49729,0.280231 0.98928,0.570037 1.48469,0.853694 0.19373,-0.290681 0.39071,-0.579596 0.55602,-0.887801 1.15165,-0.005 2.32008,0.01005 3.45974,-0.0078 0.12767,-0.07569 0.25649,0.0437 0.39532,0.0047 0.14031,-0.0077 0.27953,-0.0011 0.42172,-0.0021 0.22172,0.03032 0.46431,-0.05067 0.57986,-0.250624 0.16023,-0.276225 0.10221,-0.620479 0.0945,-0.927084 -0.0209,-0.193897 -0.13094,-0.360288 -0.30284,-0.452138 -0.17571,-0.09296 -0.40294,-0.06449 -0.58081,-0.01864 -0.21,-0.08732 -0.42868,-0.0036 -0.64411,-0.04216 -0.60809,-0.0027 -1.22121,-5.63e-4 -1.83173,-0.0013 0,-1.490692 0,-2.981386 0,-4.472078 -0.62492,0 -1.24987,0 -1.87481,0 -3.5e-4,0.410784 6.8e-4,0.827416 -5.3e-4,1.234549 -0.28456,-0.671613 -0.92578,-1.169059 -1.64928,-1.269418 -0.22453,-0.04104 -0.4545,-0.04948 -0.68234,-0.04471 z m 0.14468,1.705837 c 0.32149,-0.0035 0.43341,0.342466 0.48858,0.599798 0.13186,0.639529 0.13978,1.324348 -0.0664,1.948886 -0.0656,0.21494 -0.25588,0.398912 -0.49453,0.363283 -0.28845,0.05632 -0.48601,-0.211682 -0.54544,-0.460663 -0.14369,-0.53943 -0.11861,-1.109128 -0.087,-1.661514 0.0524,-0.294212 0.12878,-0.681128 0.45257,-0.788239 0.0838,-0.0061 0.16828,-0.006 0.25218,-0.0016 z m -9.24698,2.94349 c 0.10806,0.365696 0.24165,0.726424 0.30954,1.102259 -0.0622,0.230955 -0.33002,0.232469 -0.52295,0.219626 0.0142,-0.75973 -0.0428,-1.517843 -0.093,-2.275314 0.10216,0.31781 0.20429,0.635619 0.30644,0.953429 z m 11.43445,0.668176 c -0.14174,-0.0612 -0.24575,-0.117311 -0.10962,-0.254238 0.086,-0.182314 0.13248,-0.271828 0.10962,-0.0075 0,0.08723 0,0.174461 0,0.261689 z" />
      <path
         style="fill:#5382a1;fill-opacity:1;stroke:none;stroke-width:0.0177461"
         d="m -341.73017,-92.057415 -0.16859,-0.05184 v -0.229624 -0.229626 l 0.29281,-2.65e-4 c 0.23466,-2.64e-4 0.32941,-0.01738 0.47704,-0.08612 0.20593,-0.09588 0.37889,-0.301477 0.43786,-0.520502 0.0612,-0.227327 0.0257,-0.357172 -0.79298,-2.889017 -0.18304,-0.5661 -0.32631,-1.041252 -0.31843,-1.055894 0.0257,-0.04759 0.77859,-0.03125 0.81783,0.01775 0.0364,0.04544 0.70628,2.211977 0.80545,2.604926 0.0303,0.119941 0.055,0.266734 0.055,0.326207 0,0.234347 0.0667,0.122394 0.22466,-0.377132 0.20301,-0.641966 0.30734,-1.074081 0.43074,-1.784371 0.0524,-0.301294 0.10655,-0.603705 0.12044,-0.672028 l 0.0254,-0.124222 0.36832,-0.01019 c 0.20257,-0.0056 0.38217,0.0037 0.3991,0.02061 0.0393,0.03932 -0.18359,1.111803 -0.36253,1.744121 -0.47133,1.665517 -1.02359,2.678432 -1.71604,3.147443 -0.31644,0.214318 -0.73861,0.279744 -1.09598,0.169849 z m -5.86589,-1.389523 c 0.008,-0.05368 0.0243,-0.393075 0.0355,-0.754208 0.0338,-1.093507 0.22124,-3.472219 0.32456,-4.118284 l 0.0225,-0.14078 h 0.53875 0.53874 l 0.15462,0.48409 c 0.28932,0.905735 1.05363,3.206763 1.07088,3.224014 0.01,0.0094 0.29263,-0.821008 0.62928,-1.845461 l 0.61212,-1.862643 h 0.51183 c 0.502,0 0.51216,0.0016 0.52912,0.07986 0.0984,0.454567 0.37417,3.970284 0.37441,4.773702 l 8e-5,0.257318 h -0.42215 -0.42211 l -0.023,-0.594495 c -0.0497,-1.290061 -0.19865,-3.358004 -0.24527,-3.404605 -0.01,-0.0095 -0.0583,0.115771 -0.10853,0.278405 -0.0502,0.162634 -0.33684,1.062328 -0.63701,1.999324 l -0.54573,1.703625 -0.33512,0.01008 -0.3351,0.01008 -0.63645,-2.005746 c -0.37979,-1.196932 -0.6454,-1.981007 -0.65866,-1.944399 -0.0437,0.120632 -0.17224,2.737893 -0.17338,3.530709 v 0.417033 h -0.40727 -0.40727 z m 21.95274,-4.927719 c -0.12774,-0.106828 -0.42082,-0.289385 -0.65662,-0.408998 -0.68511,-0.34753 -0.99771,-0.600403 -1.1631,-0.940829 -0.0661,-0.135962 -0.0692,-0.162248 -0.0244,-0.203473 0.12872,-0.118053 0.7983,-0.269183 1.1992,-0.270663 0.131,-5.3e-4 0.18494,-0.0138 0.17513,-0.0432 -0.014,-0.0421 -0.68734,-0.51843 -0.97454,-0.6895 -0.0818,-0.0487 -0.34534,-0.15642 -0.58563,-0.23932 -0.59317,-0.20466 -0.5488,-0.14306 -1.2687,-1.76158 -0.30763,-0.69161 -0.4926,-1.03618 -0.72499,-1.35044 -0.54774,-0.74078 -1.20869,-1.29872 -1.96016,-1.6547 -0.34367,-0.16279 -0.60066,-0.22409 -0.94094,-0.22445 -0.15505,-1.5e-4 -0.22537,-0.0195 -0.31943,-0.0879 -0.28419,-0.20669 -0.42,-0.28658 -0.67607,-0.39777 -0.40542,-0.17604 -0.59801,-0.15382 -0.59801,0.069 0,0.13413 0.0332,0.19242 0.34817,0.61168 0.29937,0.39846 0.35954,0.52053 0.57097,1.1581 0.1525,0.45991 0.31917,0.78244 0.50284,0.97312 0.13351,0.13862 0.13298,0.2372 -0.003,0.63938 -0.12697,0.37445 -0.17407,0.77403 -0.13856,1.17538 0.0285,0.32185 0.13851,0.69252 0.25725,0.86687 0.0807,0.1184 0.18566,0.2018 0.21593,0.17153 0.01,-0.01 0.0421,-0.18188 0.0721,-0.38277 0.03,-0.20089 0.0857,-0.43561 0.12378,-0.52159 0.0819,-0.18521 0.29048,-0.45493 0.32176,-0.4161 0.0122,0.015 0.0594,0.12309 0.10514,0.24022 0.24281,0.62123 0.78875,1.53335 1.15253,1.92545 0.11316,0.122 0.19484,0.221825 0.18145,0.221825 -0.0379,0 -0.53883,-0.449405 -0.84035,-0.753845 -0.20042,-0.20238 -0.31263,-0.35419 -0.42621,-0.57659 -0.0848,-0.16604 -0.16288,-0.30196 -0.17349,-0.30204 -0.0106,-7e-5 -0.045,0.16305 -0.0764,0.36253 -0.0515,0.3268 -0.0681,0.37246 -0.16762,0.4614 -0.21899,0.19567 -0.47982,0.0998 -0.71395,-0.26245 -0.2201,-0.34055 -0.29019,-0.60457 -0.30937,-1.16577 -0.0148,-0.43091 -0.007,-0.51969 0.0775,-0.86956 0.0516,-0.21431 0.11117,-0.43352 0.13229,-0.48713 0.0344,-0.0875 0.0254,-0.11172 -0.088,-0.23737 -0.16841,-0.1864 -0.37674,-0.62783 -0.56224,-1.19132 -0.13983,-0.42476 -0.1737,-0.49017 -0.42651,-0.82376 -0.40359,-0.53249 -0.48593,-0.72199 -0.42002,-0.96668 0.0453,-0.1684 0.2301,-0.33875 0.40253,-0.37109 0.27221,-0.0511 0.82926,0.15184 1.22137,0.44489 0.17217,0.12867 0.2104,0.14135 0.51464,0.17071 0.53309,0.0514 0.83839,0.16913 1.38198,0.5327 0.69551,0.46521 1.16837,0.90917 1.60554,1.50742 0.30647,0.41942 0.3987,0.5852 0.65373,1.17512 0.13476,0.31168 0.3624,0.8047 0.50589,1.09559 l 0.2609,0.52889 0.19632,0.0867 c 0.49065,0.21668 0.78883,0.37985 1.10138,0.60269 0.36886,0.26298 0.92279,0.78867 0.92279,0.87573 0,0.0624 -0.25781,0.144864 -0.56787,0.181638 -0.19569,0.0232 -0.70271,0.140089 -0.73115,0.16855 -0.0414,0.0414 0.16271,0.218131 0.47357,0.410038 0.33724,0.20819 0.50554,0.351928 0.88646,0.75719 0.16833,0.179065 0.29515,0.388999 0.23093,0.382225 -0.014,-0.0016 -0.12956,-0.08955 -0.25643,-0.19567 z m -6.72227,-6.747983 c -0.0346,-0.0725 -0.11134,-0.19305 -0.17058,-0.26783 -0.0592,-0.0748 -0.10175,-0.14169 -0.0945,-0.14869 0.0433,-0.0419 0.24035,-0.0244 0.32012,0.0283 0.14486,0.0957 0.18857,0.23467 0.12316,0.39126 -0.0296,0.0709 -0.0677,0.12883 -0.0846,0.12883 -0.0169,0 -0.059,-0.0593 -0.0936,-0.13187 z"
         id="path7056" />
      <path
         style="fill:#ffa518;fill-opacity:1;stroke:none;stroke-width:0.0177461"
         d="m -331.13488,-92.996569 c -0.59674,-0.348041 -0.61457,-0.355688 -0.74533,-0.319379 -0.20439,0.05676 -0.91911,0.04646 -1.16176,-0.01675 -0.88022,-0.229267 -1.30731,-0.933884 -1.35729,-2.239301 -0.043,-1.123529 0.16198,-1.867083 0.66215,-2.401755 0.37357,-0.399338 0.80653,-0.568225 1.45674,-0.568225 1.13562,0 1.75819,0.581705 1.95337,1.825146 0.0654,0.41677 0.0265,1.426954 -0.0696,1.804975 -0.10535,0.414657 -0.28757,0.775814 -0.51577,1.022292 l -0.19212,0.207531 0.45974,0.227705 c 0.31224,0.154639 0.45395,0.242912 0.44159,0.275082 -0.0214,0.05563 -0.30234,0.539872 -0.31305,0.539502 -0.004,-1.4e-4 -0.28242,-0.160711 -0.61868,-0.356828 z m -0.82997,-0.972503 c 0.44966,-0.158647 0.70194,-0.615071 0.78549,-1.421064 0.0919,-0.885952 -0.0686,-1.816959 -0.37462,-2.174549 -0.19598,-0.228968 -0.44095,-0.3306 -0.79872,-0.331385 -0.25575,-5.3e-4 -0.32269,0.01302 -0.49237,0.09978 -0.32943,0.168476 -0.54258,0.531349 -0.64061,1.090591 -0.0529,0.301625 -0.0453,1.227457 0.013,1.581758 0.10914,0.663911 0.36698,1.041329 0.80171,1.173573 0.15206,0.04625 0.55214,0.03566 0.70618,-0.01871 z m -5.14247,0.625962 c -0.25881,-0.07295 -0.51255,-0.180144 -0.73562,-0.310798 l -0.15002,-0.08786 0.11216,-0.227444 0.11216,-0.227446 0.12657,0.05531 c 0.738,0.322464 1.40264,0.315892 1.75353,-0.01733 0.31514,-0.299275 0.28093,-0.770205 -0.0782,-1.076796 -0.0768,-0.06554 -0.4197,-0.275537 -0.76208,-0.466661 -0.7076,-0.394999 -0.93445,-0.578091 -1.0777,-0.869792 -0.0897,-0.182663 -0.0994,-0.238741 -0.0994,-0.575066 0,-0.327269 0.0114,-0.396648 0.0923,-0.569495 0.25302,-0.539456 0.74279,-0.814702 1.44965,-0.814702 0.40926,0 0.79592,0.08807 1.1013,0.250828 l 0.20752,0.110604 -0.054,0.129841 c -0.0297,0.07141 -0.0758,0.172194 -0.10242,0.223957 l -0.0484,0.09412 -0.27594,-0.09013 c -0.36417,-0.118933 -0.95136,-0.135114 -1.14551,-0.03157 -0.17479,0.0932 -0.24601,0.162313 -0.32322,0.313592 -0.1357,0.265882 -0.0614,0.560937 0.20484,0.813956 0.0749,0.07113 0.43958,0.300249 0.81047,0.509161 0.98719,0.556062 1.1829,0.776074 1.21558,1.366536 0.0138,0.247645 0.003,0.343488 -0.0611,0.532678 -0.14591,0.432223 -0.4832,0.761743 -0.95041,0.928489 -0.29768,0.106251 -1.00451,0.12551 -1.32204,0.03602 z m 7.55984,-2.561661 v -2.555439 h 0.40817 0.40817 v 2.236007 2.23601 h 0.81632 0.81632 v 0.319429 0.319431 h -1.22449 -1.22449 z m 3.01685,2.306992 c 0,-0.241348 -0.003,-0.248444 -0.0887,-0.248444 -0.0651,0 -0.0887,-0.01894 -0.0887,-0.07098 0,-0.06423 0.0236,-0.07099 0.24844,-0.07099 0.22476,0 0.24844,0.0067 0.24844,0.07099 0,0.05205 -0.0238,0.07098 -0.0887,0.07098 -0.0862,0 -0.0887,0.0071 -0.0887,0.248444 0,0.224784 -0.007,0.248446 -0.071,0.248446 -0.0642,0 -0.071,-0.02365 -0.071,-0.248446 z m 0.46138,-0.07099 c 0,-0.318897 1.6e-4,-0.319429 0.0907,-0.319429 0.0762,0 0.10528,0.03267 0.18182,0.204081 0.0991,0.221784 0.0854,0.226573 0.20344,-0.07098 0.0418,-0.105214 0.0718,-0.133096 0.14335,-0.133096 0.0904,0 0.0905,7.94e-4 0.0905,0.319429 0,0.295769 -0.005,0.319431 -0.071,0.319431 -0.0617,0 -0.0713,-0.02442 -0.0733,-0.186335 l -0.003,-0.186333 -0.0734,0.186333 c -0.0982,0.249176 -0.16671,0.244594 -0.2653,-0.01775 l -0.0767,-0.204078 -0.003,0.204078 c -0.003,0.17944 -0.0114,0.204081 -0.0739,0.204081 -0.0657,0 -0.071,-0.02365 -0.071,-0.319431 z"
         id="path7212" />
    </g>
  </g>
</svg>
