<?xml version="1.0" encoding="UTF-8" standalone="no"?>
<!-- Created with Inkscape (http://www.inkscape.org/) -->

<svg
   width="27.563002mm"
   height="27.566505mm"
   viewBox="0 0 27.563002 27.566505"
   version="1.1"
   id="svg5"
   sodipodi:docname="nextjs-logo.svg"
   inkscape:version="1.1 (c4e8f9e, 2021-05-24)"
   xmlns:inkscape="http://www.inkscape.org/namespaces/inkscape"
   xmlns:sodipodi="http://sodipodi.sourceforge.net/DTD/sodipodi-0.dtd"
   xmlns="http://www.w3.org/2000/svg"
   xmlns:svg="http://www.w3.org/2000/svg">
  <sodipodi:namedview
     id="namedview7"
     pagecolor="#ffffff"
     bordercolor="#666666"
     borderopacity="1.0"
     inkscape:pageshadow="2"
     inkscape:pageopacity="0.0"
     inkscape:pagecheckerboard="0"
     inkscape:document-units="mm"
     showgrid="false"
     inkscape:zoom="3.8641224"
     inkscape:cx="63.791976"
     inkscape:cy="43.60628"
     inkscape:window-width="1312"
     inkscape:window-height="761"
     inkscape:window-x="0"
     inkscape:window-y="25"
     inkscape:window-maximized="0"
     inkscape:current-layer="layer1" />
  <defs
     id="defs2" />
  <g
     inkscape:label="Layer 1"
     inkscape:groupmode="layer"
     id="layer1"
     transform="translate(87.202781,-2.2969073)">
    <path
       id="path23281"
       style="fill:#ffffff;fill-opacity:1;stroke:none;stroke-width:0.0436932"
       d="m -74.644531,2.3144531 c -6.770187,0.4074176 -12.687085,6.6178611 -12.544458,13.4418719 -0.123789,2.674575 0.58821,5.359239 2.035853,7.611821 1.647335,2.700463 4.439735,4.860516 7.325011,5.811542 3.211704,1.037254 6.825643,0.908262 9.994141,-0.482422 0.6998,-0.387227 1.4544,-0.591936 2.014076,-1.074185 4.065587,-2.769785 6.621689,-7.751333 6.116764,-12.692931 C -60.085895,8.1521764 -66.2709,2.1955511 -73.102342,2.2998763 c -0.514244,-0.00837 -1.028107,0.00238 -1.542189,0.014577 z" />
    <path
       style="fill:#000000;fill-opacity:1;stroke:none;stroke-width:0.0436932"
       d="m -75.415257,29.221848 c -5.608566,-0.935069 -9.760478,-4.86989 -11.066603,-10.487964 -0.232481,-0.999979 -0.235461,-4.300276 -0.0048,-5.347601 0.36974,-1.679029 1.125623,-3.4398334 2.083287,-4.8529481 0.741108,-1.0935681 2.409338,-2.7570953 3.473595,-3.4638049 1.520143,-1.0094347 3.252469,-1.7359447 4.966646,-2.0829321 1.183466,-0.2395597 4.052519,-0.2185765 5.195344,0.037996 2.698036,0.60573 4.772378,1.7385618 6.672255,3.643827 1.98885,1.9944889 3.191658,4.2406431 3.710455,6.9290021 0.231157,1.19783 0.249236,3.478785 0.03749,4.730154 -0.553606,3.271684 -2.562395,6.506598 -5.257808,8.467076 l -0.602947,0.438548 -4.710846,-7.133405 c -2.590967,-3.923372 -4.990902,-7.546304 -5.333191,-8.050959 l -0.622342,-0.917556 -0.63524,-0.02589 c -1.059249,-0.04317 -0.963784,-0.595377 -0.963784,5.574913 0,6.102297 -0.07769,5.592718 0.852655,5.592718 0.850276,0 0.805821,0.167433 0.819532,-3.086605 0.0065,-1.546581 0.03601,-3.283721 0.06554,-3.860313 l 0.05369,-1.048348 2.632009,3.891845 c 1.447605,2.140515 3.580061,5.16832 4.738791,6.728454 1.15873,1.560134 2.107642,2.860835 2.108694,2.890447 0.0063,0.177867 -2.376759,1.051281 -3.563534,1.306062 -1.117412,0.239888 -3.57058,0.307053 -4.64886,0.127281 z M -68.53141,15.75567 c -0.02758,-5.474822 0.05314,-5.017627 -0.885865,-5.017627 -0.899668,0 -0.842195,-0.26006 -0.842195,3.810845 v 3.521598 l 0.796143,1.227408 c 0.437877,0.675074 0.832098,1.227408 0.876043,1.227408 0.0476,0 0.07019,-1.928476 0.05587,-4.769632 z"
       id="path22802" />
  </g>
</svg>
