<?xml version="1.0" encoding="UTF-8" standalone="no"?>
<!-- Created with Inkscape (http://www.inkscape.org/) -->

<svg
   width="26.458336mm"
   height="23.6332mm"
   viewBox="0 0 26.458336 23.633199"
   version="1.1"
   id="svg5"
   inkscape:version="1.1 (c4e8f9e, 2021-05-24)"
   sodipodi:docname="react.svg"
   xmlns:inkscape="http://www.inkscape.org/namespaces/inkscape"
   xmlns:sodipodi="http://sodipodi.sourceforge.net/DTD/sodipodi-0.dtd"
   xmlns="http://www.w3.org/2000/svg"
   xmlns:svg="http://www.w3.org/2000/svg">
  <sodipodi:namedview
     id="namedview7"
     pagecolor="#ffffff"
     bordercolor="#666666"
     borderopacity="1.0"
     inkscape:pageshadow="2"
     inkscape:pageopacity="0.0"
     inkscape:pagecheckerboard="0"
     inkscape:document-units="mm"
     showgrid="false"
     inkscape:zoom="1.2515887"
     inkscape:cx="157.00045"
     inkscape:cy="10.386799"
     inkscape:window-width="1440"
     inkscape:window-height="900"
     inkscape:window-x="0"
     inkscape:window-y="0"
     inkscape:window-maximized="0"
     inkscape:current-layer="layer1" />
  <defs
     id="defs2" />
  <g
     inkscape:label="Layer 1"
     inkscape:groupmode="layer"
     id="layer1"
     transform="translate(516.51548,280.02004)">
    <g
       id="g10762"
       transform="matrix(0.04335869,0,0,0.04335869,-494.12005,-267.87874)">
      <path
         id="path6431"
         style="fill:#ffffff;fill-opacity:1;stroke:none;stroke-width:0.432234"
         d="m -95.871094,-279.98242 c -14.811206,0.5758 -29.238006,4.92577 -42.660176,11.03698 -19.93225,9.01092 -37.88779,21.77813 -54.77937,35.55936 -6.15696,5.1109 -12.11703,10.44796 -18.18155,15.66733 -10.49645,-9.10764 -20.87908,-18.37993 -32.13821,-26.54876 -14.40727,-10.69878 -29.7636,-20.31637 -46.39336,-27.167 -13.88309,-5.65694 -28.88096,-9.02979 -43.9297,-8.41949 -12.92488,0.61222 -25.85033,4.68462 -36.22823,12.53418 -10.45961,7.80822 -18.24139,18.81362 -23.22774,30.80119 -5.90474,13.90072 -8.3235,29.02338 -9.01485,44.03682 -1.07671,23.88451 1.81011,47.79243 6.72114,71.13746 0.63032,3.04703 1.2855,6.08905 1.94728,9.12951 -18.318,5.50537 -36.21931,12.436729 -53.37969,20.893755 -13.08881,6.500723 -25.71067,14.151044 -36.72926,23.810057 -7.07579,6.156261 -13.63757,12.942012 -19.2814,20.441392 -6.18708,8.438645 -10.70012,18.215674 -12.37481,28.582538 -2.10493,12.3523959 -0.92598,25.3710107 4.08856,36.905266 5.13305,11.963523 13.32322,22.422423 22.82964,31.23178 11.01876,10.173216 23.74351,18.338263 36.97874,25.308029 15.13564,7.948889 31.09231,14.201993 47.26263,19.694783 3.52982,1.218031 7.06612,2.416495 10.60168,3.618724 -3.58636,14.799266 -6.03668,29.861686 -7.57394,45.007246 -1.32867,13.63338 -1.79224,27.38667 -0.73333,41.05542 1.21144,14.78825 4.34154,29.58923 10.82485,43.0096 5.28161,10.81571 13.03736,20.59116 23.08436,27.33476 7.25503,4.97155 15.54827,8.64817 24.3112,9.80791 7.27766,0.76706 14.60836,0.39664 21.91134,0.45604 6.55474,-0.11956 13.09879,-1.14731 19.33161,-3.19582 18.25408,-5.33947 35.05885,-14.70373 50.5899,-25.54285 14.27466,-9.90241 27.59247,-21.09943 40.53917,-32.66277 17.04078,15.00224 34.50553,29.7326 53.95756,41.54544 13.00753,7.76591 26.9319,14.19936 41.64421,17.94397 10.96842,2.40693 22.279511,2.13044 33.435652,1.7899 5.247475,-0.25409 10.443114,-1.43213 15.271424,-3.5107 10.681539,-4.30834 20.219599,-11.46375 27.191844,-20.64641 6.68858,-8.65886 11.069424,-18.86333 14.259956,-29.26471 1.751659,-5.86674 3.148592,-11.85053 3.998789,-17.91642 1.236271,-10.01527 0.798521,-20.12788 0.89629,-30.19341 -0.03196,-12.95393 -0.746951,-25.95673 -3.209393,-38.69595 -1.543797,-8.79554 -3.406469,-17.5322 -5.122113,-26.295855 6.914848,-2.35989 13.897389,-4.523496 20.7208597,-7.141789 C 11.841938,83.715289 31.623496,74.561788 49.458761,62.301633 61.536686,53.851631 72.739623,43.843076 81.160019,31.665265 89.411647,19.470529 94.364752,4.7418949 93.633148,-10.071859 92.926833,-23.874493 87.51459,-37.173094 79.403509,-48.265936 70.698641,-60.317941 59.183122,-70.051843 46.881891,-78.267752 28.488992,-90.499443 8.0709,-99.295354 -12.652511,-106.74858 c -5.469036,-1.94904 -10.997463,-3.72918 -16.540848,-5.4565 2.09303,-9.89551 4.302822,-19.77645 5.700377,-29.80067 3.327808,-22.49311 4.174523,-45.46324 1.212736,-68.04636 -2.113031,-14.58687 -7.022915,-28.92427 -15.345909,-41.16346 -7.452806,-10.82876 -17.945409,-19.79412 -30.354226,-24.3788 -8.87827,-3.32608 -18.433587,-4.67543 -27.890713,-4.38805 z" />
      <path
         style="fill:#61dbfb;fill-opacity:1;stroke:none;stroke-width:0.446008"
         d="m -344.20549,256.30688 c -7.82636,-1.6809 -18.96431,-7.39172 -25.16291,-12.90192 -10.00701,-8.89565 -17.61242,-23.14292 -21.83449,-40.90275 -1.94985,-8.20191 -2.31405,-12.18415 -2.70251,-29.54975 -0.52211,-23.34081 0.65439,-35.79519 5.72993,-60.6571 1.75276,-8.58566 3.35696,-16.613806 3.56489,-17.84033 0.36222,-2.136547 -0.045,-2.354341 -9.71397,-5.195003 -14.67874,-4.312515 -34.15826,-11.982667 -48.44873,-19.076935 -41.02945,-20.36836 -63.86119,-46.215243 -65.33503,-73.9630397 -2.18916,-41.2159833 38.43855,-76.3475513 115.95695,-100.2702123 4.5479,-1.40351 7.80514,-2.89022 7.80514,-3.56252 0,-0.6346 -0.97234,-5.30382 -2.16076,-10.37606 -5.32082,-22.70959 -7.6361,-42.13221 -7.63884,-64.08125 -0.003,-23.14026 2.29408,-37.03185 8.61127,-52.07919 7.78883,-18.55279 24.37924,-32.9008 41.94171,-36.27278 8.27972,-1.58969 27.56671,-0.64933 36.40602,1.77503 25.62896,7.02927 54.72673,25.17787 86.21061,53.77052 l 9.65354,8.76703 6.92692,-6.54518 c 32.33133,-30.54953 65.97545,-51.01246 94.16038,-57.26998 5.45651,-1.21143 9.67804,-1.45263 19.624364,-1.12128 15.022078,0.50046 20.432506,2.06684 30.578369,8.85281 14.784848,9.88871 23.785719,25.0421 28.782383,48.45644 2.074098,9.71925 2.284462,12.59202 2.28614,31.22057 0.0019,22.90753 -1.054907,32.82402 -6.201706,58.18411 -1.715339,8.45203 -3.316259,15.88193 -3.557612,16.51088 -0.305773,0.79682 3.284064,2.31361 11.839551,5.00247 38.138208,11.986267 68.649506,28.044602 87.49652,46.050119 13.760952,13.146553 20.856548,24.951628 23.83618,39.656702 C 91.806856,19.201674 60.645738,54.745629 0.11276863,79.086298 -10.188815,83.228614 -30.012634,90.022254 -35.799315,91.393383 c -3.19315,0.756598 -3.461298,1.30682 -2.408354,4.941689 1.663565,5.742808 6.061152,28.928238 7.679878,40.490728 2.205545,15.75409 2.246667,47.31164 0.07689,58.99411 -5.859815,31.54993 -20.561464,51.57518 -43.47365,59.2158 -8.964986,2.98961 -23.734429,3.36786 -35.621439,0.91229 -27.3859,-5.65728 -59.96556,-25.11192 -93.05824,-55.56883 -7.77842,-7.15888 -8.86874,-7.88071 -10.25819,-6.7913 -0.85508,0.67044 -5.36805,4.71955 -10.02884,8.99802 -24.58219,22.56574 -52.20993,40.65479 -74.55909,48.81697 -16.38108,5.98256 -33.4148,7.76919 -46.75511,4.90402 z m 25.62743,-24.99802 c 23.02332,-4.75559 52.05893,-22.63388 82.67374,-50.90523 l 6.90352,-6.37507 -5.47472,-6.04114 c -10.04001,-11.07875 -22.32986,-26.13609 -33.63769,-41.21237 -6.15717,-8.20914 -11.64719,-15.17456 -12.2,-15.47873 -0.55283,-0.30416 -4.2164,-0.82479 -8.14127,-1.15694 -11.9807,-1.01389 -38.22165,-4.91084 -54.75121,-8.13092 -8.61832,-1.6789 -15.93972,-2.76068 -16.26979,-2.403945 -0.84509,0.913375 -5.00754,20.829825 -7.12658,34.099225 -2.2544,14.11712 -3.21426,42.13923 -1.80172,52.59997 1.48148,10.97134 3.46802,18.37456 6.8295,25.45145 8.34655,17.57192 22.1654,23.85642 42.99622,19.5537 z m 238.695233,-0.85062 c 6.414659,-2.2665 14.181222,-9.89635 17.998855,-17.68202 9.162505,-18.68603 10.726272,-48.13685 4.495896,-84.67248 -2.611335,-15.31317 -5.759723,-29.188628 -6.622997,-29.188628 -0.34697,0 -4.288441,0.798274 -8.758807,1.773958 -12.348966,2.6952 -38.37142,6.82842 -53.33765,8.47177 -7.35913,0.80807 -14.24356,1.64084 -15.29873,1.85063 -1.22798,0.24413 -6.08749,5.92156 -13.50146,15.77392 -11.13185,14.79304 -22.37751,28.5976 -33.55459,41.18979 l -5.26574,5.93242 2.58969,2.7439 c 1.42434,1.50914 7.00518,6.57248 12.40187,11.25186 27.77034,24.07916 52.28982,38.4999 74.03735,43.54388 6.709688,1.5562 18.999031,1.06644 24.816313,-0.989 z M -202.35541,145.62711 c 7.13828,-8.26834 25.84881,-31.2925 25.84905,-31.80841 5e-5,-0.10193 -15.65479,-0.18532 -34.78853,-0.18532 -19.13374,0 -34.78866,0.20999 -34.78871,0.46664 -5.3e-4,1.86152 33.17835,41.01211 34.75632,41.01211 0.43077,0 4.4681,-4.26826 8.97187,-9.48502 z m 37.04582,-57.987402 8.0748,-0.548153 7.66496,-11.705537 c 14.70824,-22.461691 29.43209,-48.020454 40.52664,-70.3491972 l 6.09108,-12.2588092 -4.31504,-8.7035716 c -10.75055,-21.684236 -27.17315,-50.24896 -41.74472,-72.608871 -6.92687,-10.62922 -8.29283,-12.239809 -10.79912,-12.733259 -1.57806,-0.31069 -20.12972,-0.79652 -41.2259,-1.07962 -38.81615,-0.5209 -62.705,0.34088 -65.12508,2.349365 -4.07107,3.378681 -31.67964,49.680351 -45.83101,76.862084 l -8.20787,15.7655302 6.39814,12.7789886 c 11.13293,22.2358142 25.77516,47.6350572 40.6634,70.5370382 l 7.39355,11.373207 4.25592,0.10169 c 2.34076,0.05593 9.47422,0.419711 15.85214,0.808379 12.20779,0.743961 66.56196,0.345228 80.32811,-0.589264 z m -59.36573,-43.657326 c -9.35537,-2.46819 -16.05501,-6.456503 -23.71773,-14.119225 -10.82283,-10.822824 -15.54474,-21.9648106 -15.5178,-36.6163731 0.0268,-14.5546719 5.08296,-26.9422789 15.15011,-37.1174899 10.54715,-10.660369 21.67557,-15.354239 36.57365,-15.426457 15.27911,-0.07404 27.43886,4.803113 37.79506,15.159307 10.35619,10.356192 15.23337,22.515943 15.1593,37.7950565 -0.0722,14.8980801 -4.76609,26.0264985 -15.42645,36.5736455 -6.73297,6.661451 -15.74617,11.789788 -24.23964,13.791874 -7.13138,1.681012 -19.32424,1.661932 -25.7765,-0.04032 z m -74.18602,39.058357 c -0.16353,-0.390559 -4.76292,-8.117652 -10.22085,-17.171313 -5.45793,-9.053668 -13.14372,-22.41047 -17.07953,-29.681786 -3.9358,-7.271313 -7.36227,-12.886822 -7.61437,-12.478922 -2.11077,3.415297 -18.45755,47.914356 -18.45755,50.244973 0,0.776097 23.90286,5.51644 40.14073,7.960592 13.33506,2.007206 13.61018,2.03063 13.23157,1.126456 z m 196.39224,-2.556571 c 14.960384,-2.410005 30.023166,-5.359466 31.25329,-6.119722 0.42205,-0.260845 -1.022411,-5.699477 -3.209911,-12.085857 -4.032671,-11.773302 -14.565509,-39.184855 -15.056715,-39.184855 -0.147379,0 -3.586816,6.121463 -7.643178,13.603248 -6.455606,11.907051 -21.422416,37.358147 -26.273716,44.678488 l -1.67714,2.530713 4.39056,-0.59735 c 2.41481,-0.328538 10.61237,-1.599641 18.21681,-2.824665 z M -372.95712,55.999703 c 4.20753,-12.881863 14.72096,-39.948606 20.98935,-54.0368505 l 4.04388,-9.0886638 -4.45679,-9.9878787 c -6.59014,-14.768836 -14.21638,-34.256321 -19.52247,-49.886211 -2.58158,-7.60444 -4.95922,-14.134372 -5.28366,-14.510953 -0.32442,-0.376585 -5.78103,0.968703 -12.12579,2.989519 -56.54442,18.009576 -92.06026,44.22281 -93.81246,69.2403234 -0.80459,11.487911 4.30736,21.7511456 16.75944,33.6477966 11.90913,11.377908 29.61302,21.906571 52.91282,31.467736 11.45736,4.701577 32.2866,11.734742 34.90469,11.785862 1.50611,0.02944 2.37708,-1.780857 5.59099,-11.62068 z m 341.919683,7.626633 C 17.664748,47.709316 49.64767,26.230306 58.462952,3.5198937 c 3.401774,-8.763872 1.559454,-20.4231837 -4.79081,-30.3192387 -4.065799,-6.336 -16.22466,-17.616472 -25.930447,-24.057194 -10.12103,-6.716268 -29.4108713,-16.22484 -44.131227,-21.753653 -11.200725,-4.206883 -28.983461,-9.88891 -29.404029,-9.395314 -0.134649,0.158041 -2.152113,5.90704 -4.483256,12.775565 -5.499627,16.204242 -12.567518,34.388981 -19.340179,49.75966 l -5.417436,12.2949897 6.774685,15.803521 c 7.530703,17.5671173 13.800481,33.9099423 18.810364,49.0311333 2.241449,6.765319 3.754818,10.035183 4.644506,10.035183 0.725834,0 6.92118,-1.830694 13.76744,-4.06821 z M -325.90086,-50.702436 c 3.91481,-7.226482 11.59274,-20.573274 17.06207,-29.659539 7.88684,-13.102469 9.62946,-16.574794 8.42278,-16.783026 -3.29528,-0.568651 -48.36059,7.151446 -50.8972,8.719155 -0.94931,0.586698 -0.42672,2.970237 2.57617,11.749987 4.57397,13.373259 14.61162,39.109745 15.25404,39.111342 0.25537,6.35e-4 3.66733,-5.911428 7.58214,-13.137919 z m 242.179046,-0.241173 c 2.589453,-6.623221 6.621944,-17.746021 8.961096,-24.717332 3.731019,-11.11949 4.070691,-12.729572 2.76757,-13.118766 -8.055575,-2.405946 -50.567992,-9.270423 -51.519552,-8.318863 -0.30713,0.307139 2.10222,4.83734 5.35412,10.067123 5.49267,8.833432 17.21779,29.228473 25.027359,43.533391 1.83388,3.359136 3.641897,5.767579 4.01782,5.352096 0.375923,-0.415484 2.802136,-6.174429 5.391587,-12.797649 z M -336.69571,-117.33743 c 11.83218,-2.18562 38.9646,-6.01258 51.36329,-7.24466 l 5.79811,-0.57616 4.24639,-6.09661 c 7.28133,-10.45391 22.20032,-29.2821 34.39642,-43.40922 l 11.70345,-13.55647 -8.43867,-7.7609 c -25.59586,-23.54006 -51.18423,-40.24232 -71.74168,-46.82785 -30.79448,-9.86494 -48.66058,-0.3464 -56.94988,30.34122 -2.17141,8.03872 -2.31087,9.80901 -2.35966,29.95208 -0.0397,16.39165 0.32318,23.81224 1.54861,31.66658 1.68732,10.81487 5.35849,29.4265 6.88961,34.92812 l 0.90769,3.26155 5.11022,-1.19213 c 2.81063,-0.65565 10.69737,-2.22416 17.5261,-3.48555 z m 275.213188,-4.08278 c 3.215524,-13.69637 6.304637,-33.72905 7.392585,-47.9405 2.344799,-30.62896 -3.358422,-56.09109 -15.217235,-67.93759 -5.202245,-5.19684 -10.593395,-7.84863 -18.027353,-8.86724 -22.727135,-3.1141 -57.451815,13.84544 -92.268295,45.06385 -4.83443,4.33482 -10.0292,8.94687 -11.54391,10.249 l -2.75403,2.3675 1.78403,2.25768 c 0.98122,1.24173 5.43303,6.39816 9.89292,11.45875 9.02239,10.23763 25.92068,31.47149 33.76608,42.42942 l 5.11541,7.14485 9.95542,1.06839 c 19.37408,2.07918 49.00477,6.7503 61.692364,9.72546 8.156702,1.91269 8.106936,1.9469 10.212014,-7.01957 z m -118.998008,-11.53658 c -10.41387,-13.53266 -29.7804,-36.42304 -30.93069,-36.55869 -1.14416,-0.13492 -31.52565,35.93486 -33.79866,40.12675 -0.67681,1.24818 2.78887,1.39033 33.89556,1.39033 h 34.64945 z"
         id="path8825" />
    </g>
  </g>
</svg>
