<?xml version="1.0" encoding="UTF-8" standalone="no"?>
<!-- Created with Inkscape (http://www.inkscape.org/) -->

<svg
   width="26.458334mm"
   height="22.852783mm"
   viewBox="0 0 26.458332 22.852783"
   version="1.1"
   id="svg5"
   inkscape:version="1.1 (c4e8f9e, 2021-05-24)"
   sodipodi:docname="vue.svg"
   xmlns:inkscape="http://www.inkscape.org/namespaces/inkscape"
   xmlns:sodipodi="http://sodipodi.sourceforge.net/DTD/sodipodi-0.dtd"
   xmlns="http://www.w3.org/2000/svg"
   xmlns:svg="http://www.w3.org/2000/svg">
  <sodipodi:namedview
     id="namedview7"
     pagecolor="#ffffff"
     bordercolor="#666666"
     borderopacity="1.0"
     inkscape:pageshadow="2"
     inkscape:pageopacity="0.0"
     inkscape:pagecheckerboard="0"
     inkscape:document-units="mm"
     showgrid="false"
     inkscape:zoom="3.2928223"
     inkscape:cx="66.05276"
     inkscape:cy="39.631656"
     inkscape:window-width="1312"
     inkscape:window-height="761"
     inkscape:window-x="0"
     inkscape:window-y="25"
     inkscape:window-maximized="0"
     inkscape:current-layer="layer1" />
  <defs
     id="defs2" />
  <g
     inkscape:label="Layer 1"
     inkscape:groupmode="layer"
     id="layer1"
     transform="translate(506.21544,320.90679)">
    <g
       id="g11870"
       transform="matrix(0.95341364,0,0,0.95341364,-23.582736,-14.94988)">
      <path
         id="path11818"
         style="fill:#ffffff;fill-opacity:1;stroke:none;stroke-width:0.0290759"
         d="m -484.08789,-320.88867 c -1.84177,10e-4 -3.68352,-0.019 -5.52539,-0.0117 -0.92392,1.60932 -1.84653,3.2194 -2.77149,4.82812 -0.92615,-1.60025 -1.85696,-3.1978 -2.78515,-4.79687 -3.52249,0.0162 -7.05287,-0.10434 -10.57031,0.0469 -0.78911,-0.0577 -0.40367,0.56577 -0.19789,0.99395 0.97429,1.78764 2.04777,3.52199 3.03994,5.30183 3.36695,5.80678 6.68868,11.63756 10.09349,17.41711 0.48167,0.45271 1.04499,-0.0773 1.19306,-0.56444 4.31742,-7.50333 8.69828,-14.97722 12.94952,-22.51368 0.37863,-0.56274 0.20922,-0.72432 -0.46932,-0.65954 -1.65066,-0.0939 -3.30431,-0.0517 -4.95646,-0.0416 z" />
      <g
         id="g11816"
         transform="matrix(0.18092707,0,0,0.18092707,-414.13169,-262.40675)">
        <path
           style="fill:#31475e;fill-opacity:1;stroke:none;stroke-width:0.160705"
           d="m -433.36529,-245.54435 c -0.80357,-1.41453 -13.75912,-23.86212 -17.1228,-29.66801 -1.02416,-1.76775 -5.40459,-9.36106 -9.73428,-16.87401 -4.32969,-7.51296 -9.73321,-16.86529 -12.00782,-20.78296 -2.27462,-3.91767 -4.13567,-7.20969 -4.13567,-7.3156 0,-0.1059 6.0284,-0.15481 13.39644,-0.10868 l 13.39643,0.0839 0.95077,1.60705 c 1.28484,2.17172 7.34681,12.64429 10.9767,18.96318 4.22343,7.35213 4.79864,8.28358 5.1392,8.32219 0.26143,0.0296 1.26564,-1.62045 5.45595,-8.96501 0.40342,-0.7071 2.53542,-4.39528 4.73777,-8.19595 2.20235,-3.80067 4.63805,-8.03123 5.41267,-9.40124 l 1.40841,-2.49092 h 13.43526 c 7.3894,0 13.43526,0.0473 13.43526,0.10508 0,0.11312 -1.46731,2.66357 -16.3967,28.50039 -5.36271,9.2807 -10.78718,18.68194 -12.05438,20.89163 -6.53293,11.39185 -14.76042,25.62103 -15.11015,26.1325 -0.36116,0.5282 -0.46761,0.4559 -1.18306,-0.80352 z"
           id="path6970" />
        <path
           style="fill:#3fb984;fill-opacity:1;stroke:none;stroke-width:0.160705"
           d="m -434.66463,-197.0044 c -1.14159,-2.0025 -4.79393,-8.34152 -8.11632,-14.08672 -3.3224,-5.7452 -7.37214,-12.75996 -8.99945,-15.58837 -1.6273,-2.8284 -5.67604,-9.84317 -8.9972,-15.58837 -6.90263,-11.94071 -8.19357,-14.17659 -17.35106,-30.05181 -3.67097,-6.36392 -6.92734,-12.00466 -7.23637,-12.53498 -0.30904,-0.53033 -1.64476,-2.84448 -2.96827,-5.14256 -3.38104,-5.87069 -15.61742,-27.05577 -16.52236,-28.60547 -0.41291,-0.7071 -0.75248,-1.39411 -0.75461,-1.52669 -0.002,-0.13259 6.56151,-0.24106 14.58588,-0.24106 13.59851,0 14.60442,0.0382 14.80559,0.56246 0.26081,0.67965 42.71566,74.24258 43.33936,75.09554 0.50633,0.69245 -1.85367,4.65924 26.4202,-44.40804 l 17.99895,-31.23588 14.54379,-0.007 c 7.99909,-0.004 14.54379,0.0553 14.54379,0.13138 0,0.16917 -2.68414,4.86298 -11.40817,19.94969 -3.67998,6.36391 -7.73241,13.37868 -9.00539,15.58837 -3.18063,5.52108 -18.41932,31.92576 -29.40052,50.94345 -5.00162,8.66199 -12.13315,21.02823 -15.84786,27.48053 -3.7147,6.4523 -6.93409,11.99583 -7.15419,12.31896 -0.35643,0.52327 -0.6271,0.18945 -2.47579,-3.05339 z"
           id="path7009" />
      </g>
    </g>
  </g>
</svg>
