<?xml version="1.0" encoding="UTF-8" standalone="no"?>
<!-- Created with Inkscape (http://www.inkscape.org/) -->

<svg
   width="128.71965mm"
   height="126.56569mm"
   viewBox="0 0 128.71965 126.56569"
   version="1.1"
   id="svg5"
   xmlns="http://www.w3.org/2000/svg"
   xmlns:svg="http://www.w3.org/2000/svg">
  <defs
     id="defs2" />
  <g
     id="layer1"
     transform="translate(-57.783719,-60.166023)">
    <path
       style="fill:#ffffff;stroke-width:4.37484"
       d="m 99.77745,183.57319 c -17.20836,-6.6331 -30.872653,-21.00994 -36.796278,-38.71506 -2.433216,-7.27264 -2.917863,-10.58903 -2.917863,-19.96669 0,-7.3469 0.115897,-9.02021 0.861827,-12.44287 2.784317,-12.775725 8.343384,-23.07573 17.232233,-31.928391 2.556934,-2.546526 6.171654,-5.702781 8.03271,-7.013903 6.742119,-4.749853 15.177631,-8.394216 23.638691,-10.212542 3.72459,-0.800433 5.20656,-0.90505 12.52015,-0.883859 6.97823,0.02024 8.87754,0.153815 11.96095,0.841301 26.03043,5.803833 44.90777,25.554126 49.26802,51.546384 0.87048,5.18904 0.85938,14.8906 -0.023,20.08361 -2.23687,13.16496 -7.72911,24.11329 -16.83125,33.55181 -6.30551,6.53853 -12.60016,10.92388 -20.56119,14.32453 -4.63526,1.98001 -6.67077,2.22272 -7.83798,0.93459 -0.68026,-0.75074 -0.74938,-1.70641 -0.92792,-12.82909 -0.1843,-11.48017 -0.23229,-12.10328 -1.07264,-13.92585 -0.48383,-1.04937 -1.30531,-2.46594 -1.8255,-3.14794 l -0.9458,-1.24001 2.01842,-0.25617 c 2.99084,-0.37958 8.68476,-1.93041 11.24548,-3.06289 6.96691,-3.0811 11.6293,-8.78493 13.79849,-16.88066 0.72119,-2.69155 0.864,-4.24847 0.87875,-9.58015 0.0216,-7.84259 -0.60876,-10.30115 -3.86949,-15.08982 -2.09012,-3.06955 -2.11854,-3.14824 -1.63702,-4.53106 0.77316,-2.22033 0.58076,-9.786303 -0.32031,-12.59652 l -0.74229,-2.315022 -1.71828,-0.123148 c -2.51032,-0.179918 -7.43183,1.558106 -11.91106,4.206378 -3.50198,2.07049 -3.91779,2.223752 -5.10746,1.882562 -6.99704,-2.006721 -18.84033,-2.166936 -26.50294,-0.358532 l -3.211,0.757809 -1.67975,-1.155689 c -4.47292,-3.077422 -10.842311,-5.540627 -13.779259,-5.328769 -1.632276,0.117745 -1.665116,0.148652 -2.381322,2.241494 -0.986837,2.88365 -1.255356,9.501606 -0.499193,12.303097 l 0.560996,2.07842 -1.3692,1.77996 c -2.20097,2.86126 -3.876771,6.90941 -4.577695,11.05814 -0.539031,3.19049 -0.565344,4.38811 -0.180696,8.22439 1.532933,15.28866 8.549616,23.12726 23.241759,25.96427 2.412,0.46575 4.45847,0.90387 4.54774,0.97359 0.0892,0.0697 -0.1929,0.51675 -0.627,0.9934 -1.12191,1.2318 -1.71364,2.46601 -2.43974,5.08866 -0.61787,2.2317 -0.68539,2.31068 -2.53064,2.96034 -1.15112,0.40527 -3.10828,0.67772 -4.982512,0.69359 -4.901931,0.0415 -8.07568,-1.85105 -11.187089,-6.67101 -2.627535,-4.0704 -5.872173,-6.18886 -9.509387,-6.20881 -1.207134,-0.007 -2.317313,0.1101 -2.467064,0.25936 -0.639652,0.63762 0.323052,2.13874 2.176691,3.39404 2.646535,1.79227 4.183711,3.74318 6.147954,7.80273 0.895661,1.85108 2.220742,4.05752 2.944622,4.90321 1.584676,1.85133 5.240547,3.72419 8.421741,4.31433 2.185021,0.40534 7.396874,0.24715 9.356544,-0.28398 l 0.86814,-0.23529 v 6.60422 c 0,6.08979 -0.0601,6.66434 -0.77167,7.37591 -1.02651,1.0265 -3.04521,0.97304 -5.980482,-0.1584 z"
       id="path873" />
  </g>
</svg>
