<svg
   viewBox="0 0 53.621513 54.013412"
   version="1.1"
   id="svg5"
   inkscape:version="1.1 (c4e8f9e, 2021-05-24)"
   sodipodi:docname="linked-in.svg"
   xmlns:inkscape="http://www.inkscape.org/namespaces/inkscape"
   xmlns:sodipodi="http://sodipodi.sourceforge.net/DTD/sodipodi-0.dtd"
   xmlns="http://www.w3.org/2000/svg"
   xmlns:svg="http://www.w3.org/2000/svg">
  <sodipodi:namedview
     id="namedview7"
     pagecolor="#ffffff"
     bordercolor="#666666"
     borderopacity="1.0"
     inkscape:pageshadow="2"
     inkscape:pageopacity="0.0"
     inkscape:pagecheckerboard="0"
     inkscape:document-units="mm"
     showgrid="false"
     inkscape:zoom="0.64697034"
     inkscape:cx="448.24312"
     inkscape:cy="138.3371"
     inkscape:window-width="1312"
     inkscape:window-height="761"
     inkscape:window-x="0"
     inkscape:window-y="25"
     inkscape:window-maximized="0"
     inkscape:current-layer="layer1"
     inkscape:snap-global="false" />
  <defs
     id="defs2" />
  <g
     inkscape:label="Layer 1"
     inkscape:groupmode="layer"
     id="layer1"
     transform="translate(-15.271028,-123.50689)">
    <path
       style="stroke:none;stroke-width:1.74083;stroke-miterlimit:4;stroke-dasharray:none"
       d="m 20.666118,175.69039 c -0.464431,-0.10243 -1.005982,-0.27506 -1.203447,-0.38363 -0.698134,-0.38384 -1.589073,-1.31373 -1.994245,-2.08145 l -0.410282,-0.7774 v -22.03167 -22.03167 l 0.328146,-0.70968 c 0.446538,-0.96573 1.264072,-1.8344 2.154483,-2.28922 l 0.741518,-0.37878 h 22.185207 22.185199 l 0.74152,0.37878 c 0.844027,0.43114 1.617058,1.22427 2.130537,2.18594 l 0.352096,0.65943 v 22.10844 22.10843 l -0.410284,0.7774 c -0.42709,0.80925 -1.33177,1.73055 -2.07852,2.11671 -0.238961,0.12356 -0.84304,0.30019 -1.342383,0.39251 -1.356368,0.25073 -42.23111,0.20915 -43.379545,-0.0442 z m 11.620065,-5.95603 0.355336,-0.33382 V 156.86157 144.3226 l -0.323176,-0.29247 c -0.297638,-0.26936 -0.596027,-0.29248 -3.775069,-0.29248 -3.442498,0 -3.452691,7.9e-4 -3.745391,0.36246 -0.283573,0.35019 -0.293498,0.78264 -0.293498,12.78842 v 12.42597 l 0.376852,0.37684 0.376852,0.37685 h 3.336371 c 3.214236,0 3.349394,-0.0122 3.691723,-0.33383 z m 12.017627,0.18354 c 0.570987,-0.30558 0.620174,-0.92103 0.620174,-7.7585 0,-6.91824 0.05926,-7.71985 0.669212,-9.05214 0.744949,-1.62719 1.902852,-2.50747 3.487221,-2.65114 1.873585,-0.16989 3.065607,0.3218 3.94324,1.62649 0.911878,1.35561 0.958648,1.83191 0.958648,9.76308 0,7.54513 0.02789,7.87007 0.697768,8.12713 0.136698,0.0525 1.797381,0.0954 3.690419,0.0954 3.270425,0 3.457638,-0.0157 3.758112,-0.31623 0.313292,-0.31328 0.31567,-0.39695 0.256305,-9.01993 -0.0565,-8.20304 -0.07838,-8.77878 -0.381514,-10.00872 -0.803902,-3.26216 -2.209916,-5.29738 -4.435944,-6.42108 -1.663133,-0.83954 -3.735143,-1.15471 -6.068285,-0.92304 -2.632867,0.26143 -3.906544,0.81421 -5.446673,2.36389 l -1.097692,1.10451 -0.05563,-1.22438 c -0.05073,-1.11653 -0.09338,-1.25687 -0.484559,-1.59335 -0.424174,-0.36486 -0.465768,-0.36897 -3.728283,-0.36897 -3.298286,0 -3.299455,1.2e-4 -3.676181,0.37685 l -0.376852,0.37684 v 12.47147 12.47146 l 0.333828,0.35534 c 0.329221,0.35044 0.380115,0.35534 3.694836,0.35534 1.898743,0 3.483176,-0.0654 3.641824,-0.15029 z M 31.035673,140.67072 c 1.052606,-0.515 2.109543,-1.68855 2.533512,-2.81305 0.47077,-1.24863 0.375935,-3.14535 -0.214837,-4.29671 -0.537468,-1.04749 -1.493366,-1.97327 -2.555194,-2.47468 -0.719063,-0.33955 -1.049556,-0.39781 -2.226202,-0.39243 -1.749995,0.008 -2.757309,0.44502 -3.895008,1.68984 -1.045937,1.14442 -1.445214,2.23406 -1.376857,3.75752 0.176167,3.92608 4.177965,6.26959 7.734586,4.52951 z"
       id="path1303" />
  </g>
</svg>
