<svg xmlns="http://www.w3.org/2000/svg" viewBox="0 0 1440 320">
    <path 
        fill="#0099ff" 
        fill-opacity="1" 
        d="M0,160L26.7,154.7C53.3,149,107,139,160,154.7C213.3,171,267,213,320,208C373.3,203,427,149,480,144C533.3,139,587,181,640,192C693.3,203,747,181,800,160C853.3,139,907,117,960,112C1013.3,107,1067,117,1120,149.3C1173.3,181,1227,235,1280,256C1333.3,277,1387,267,1413,261.3L1440,256L1440,320L1413.3,320C1386.7,320,1333,320,1280,320C1226.7,320,1173,320,1120,320C1066.7,320,1013,320,960,320C906.7,320,853,320,800,320C746.7,320,693,320,640,320C586.7,320,533,320,480,320C426.7,320,373,320,320,320C266.7,320,213,320,160,320C106.7,320,53,320,27,320L0,320Z">
    </path>
</svg>